0
SECTION
2
HEADER
9
$ACADVER
1
AC1008
9
$UCSORG
10
0.0
20
0.0
30
0.0
9
$UCSXDIR
10
1.0
20
0.0
30
0.0
9
$TILEMODE
70
1
9
$UCSYDIR
10
0.0
20
1.0
30
0.0
9
$EXTMIN
10
-175.028275
20
-95.000000
30
0.000004
9
$EXTMAX
10
175.028275
20
95.000000
30
72.567986
0
ENDSEC
0
SECTION
2
TABLES
0
TABLE
2
LTYPE
70
1
0
LTYPE
2
CONTINUOUS
70
64
3
Solid line
72
65
73
0
40
0.0
0
ENDTAB
0
TABLE
2
LAYER
70
1
0
LAYER
2
TABLE
70
0
62
111
6
CONTINUOUS
0
ENDTAB
0
TABLE
2
STYLE
70
1
0
STYLE
2
STANDARD
70
0
40
0.0
41
1.0
50
0.0
71
0
42
0.2
3
txt
4

0
ENDTAB
0
TABLE
2
UCS
70
0
0
ENDTAB
0
ENDSEC
0
SECTION
2
ENTITIES
0
POLYLINE
8
TABLE
66
1
70
64
71
392
72
740
62
111
0
VERTEX
8
TABLE
10
-73.415344
20
-7.648414
30
65.451378
70
192
0
VERTEX
8
TABLE
10
-73.415344
20
7.648452
30
65.451370
70
192
0
VERTEX
8
TABLE
10
73.413956
20
7.648452
30
65.451363
70
192
0
VERTEX
8
TABLE
10
73.413956
20
-7.648414
30
65.451370
70
192
0
VERTEX
8
TABLE
10
73.413956
20
-7.648412
30
72.567955
70
192
0
VERTEX
8
TABLE
10
-73.415344
20
-7.648412
30
72.567963
70
192
0
VERTEX
8
TABLE
10
73.413956
20
7.648454
30
72.567947
70
192
0
VERTEX
8
TABLE
10
-73.415344
20
7.648454
30
72.567955
70
192
0
VERTEX
8
TABLE
10
67.025009
20
15.041822
30
65.471748
70
192
0
VERTEX
8
TABLE
10
67.025131
20
-15.041807
30
65.471748
70
192
0
VERTEX
8
TABLE
10
74.940475
20
-9.000008
30
65.471748
70
192
0
VERTEX
8
TABLE
10
74.940475
20
9.000006
30
65.471748
70
192
0
VERTEX
8
TABLE
10
67.025131
20
-15.041816
30
36.284012
70
192
0
VERTEX
8
TABLE
10
74.940475
20
-9.000000
30
36.284000
70
192
0
VERTEX
8
TABLE
10
67.025009
20
15.041805
30
36.283993
70
192
0
VERTEX
8
TABLE
10
74.940475
20
8.999990
30
36.284000
70
192
0
VERTEX
8
TABLE
10
74.944443
20
-8.885162
30
65.451363
70
192
0
VERTEX
8
TABLE
10
133.106033
20
-82.958168
30
65.451401
70
192
0
VERTEX
8
TABLE
10
132.453598
20
-82.127251
30
64.247856
70
192
0
VERTEX
8
TABLE
10
130.757004
20
-79.966537
30
60.892498
70
192
0
VERTEX
8
TABLE
10
128.407303
20
-76.973984
30
55.768181
70
192
0
VERTEX
8
TABLE
10
125.795486
20
-73.647713
30
49.257782
70
192
0
VERTEX
8
TABLE
10
123.312729
20
-70.485710
30
41.744167
70
192
0
VERTEX
8
TABLE
10
74.944443
20
-8.885185
30
36.263599
70
192
0
VERTEX
8
TABLE
10
75.467300
20
-9.551079
30
36.008724
70
192
0
VERTEX
8
TABLE
10
76.878860
20
-11.348778
30
35.153175
70
192
0
VERTEX
8
TABLE
10
78.943497
20
-13.978241
30
33.560555
70
192
0
VERTEX
8
TABLE
10
81.425674
20
-17.139503
30
31.094486
70
192
0
VERTEX
8
TABLE
10
84.089890
20
-20.532562
30
27.618580
70
192
0
VERTEX
8
TABLE
10
121.349960
20
-67.985985
30
33.610199
70
192
0
VERTEX
8
TABLE
10
86.700516
20
-23.857393
30
22.996450
70
192
0
VERTEX
8
TABLE
10
120.248276
20
-66.582909
30
25.536049
70
192
0
VERTEX
8
TABLE
10
88.713913
20
-26.421581
30
17.560764
70
192
0
VERTEX
8
TABLE
10
119.838058
20
-66.060463
30
17.748289
70
192
0
VERTEX
8
TABLE
10
89.786392
20
-27.787472
30
12.257133
70
192
0
VERTEX
8
TABLE
10
120.731216
20
-67.197983
30
0.000068
70
192
0
VERTEX
8
TABLE
10
89.794235
20
-27.797455
30
0.000049
70
192
0
VERTEX
8
TABLE
10
89.921890
20
-27.960062
30
0.957034
70
192
0
VERTEX
8
TABLE
10
120.565842
20
-66.987411
30
1.372813
70
192
0
VERTEX
8
TABLE
10
90.134048
20
-28.230255
30
3.573443
70
192
0
VERTEX
8
TABLE
10
120.215866
20
-66.541672
30
5.139718
70
192
0
VERTEX
8
TABLE
10
119.900253
20
-66.139694
30
10.773853
70
192
0
VERTEX
8
TABLE
10
90.174301
20
-28.281538
30
7.467415
70
192
0
VERTEX
8
TABLE
10
67.024948
20
-15.041785
30
36.263603
70
192
0
VERTEX
8
TABLE
10
67.024948
20
-15.041784
30
65.451363
70
192
0
VERTEX
8
TABLE
10
67.547806
20
-15.707686
30
36.008728
70
192
0
VERTEX
8
TABLE
10
68.959335
20
-17.505377
30
35.153175
70
192
0
VERTEX
8
TABLE
10
71.023972
20
-20.134848
30
33.560555
70
192
0
VERTEX
8
TABLE
10
73.506180
20
-23.296112
30
31.094486
70
192
0
VERTEX
8
TABLE
10
76.170364
20
-26.689178
30
27.618582
70
192
0
VERTEX
8
TABLE
10
78.780991
20
-30.014009
30
22.996450
70
192
0
VERTEX
8
TABLE
10
80.794388
20
-32.578194
30
17.560764
70
192
0
VERTEX
8
TABLE
10
81.866867
20
-33.944080
30
12.257135
70
192
0
VERTEX
8
TABLE
10
82.254807
20
-34.438145
30
7.467417
70
192
0
VERTEX
8
TABLE
10
82.214523
20
-34.386860
30
3.573445
70
192
0
VERTEX
8
TABLE
10
82.002396
20
-34.116676
30
0.957036
70
192
0
VERTEX
8
TABLE
10
81.874710
20
-33.954063
30
0.000050
70
192
0
VERTEX
8
TABLE
10
112.811691
20
-73.354599
30
0.000070
70
192
0
VERTEX
8
TABLE
10
112.646378
20
-73.144028
30
1.372815
70
192
0
VERTEX
8
TABLE
10
112.296371
20
-72.698288
30
5.139719
70
192
0
VERTEX
8
TABLE
10
111.980728
20
-72.296310
30
10.773857
70
192
0
VERTEX
8
TABLE
10
111.918533
20
-72.217064
30
17.748289
70
192
0
VERTEX
8
TABLE
10
112.328751
20
-72.739525
30
25.536049
70
192
0
VERTEX
8
TABLE
10
113.430435
20
-74.142601
30
33.610203
70
192
0
VERTEX
8
TABLE
10
115.393204
20
-76.642326
30
41.744171
70
192
0
VERTEX
8
TABLE
10
117.876022
20
-79.804329
30
49.257790
70
192
0
VERTEX
8
TABLE
10
120.487778
20
-83.130600
30
55.768185
70
192
0
VERTEX
8
TABLE
10
122.837509
20
-86.123154
30
60.892498
70
192
0
VERTEX
8
TABLE
10
124.534073
20
-88.283867
30
64.247864
70
192
0
VERTEX
8
TABLE
10
125.186508
20
-89.114784
30
65.451401
70
192
0
VERTEX
8
TABLE
10
132.453598
20
82.127274
30
64.247795
70
192
0
VERTEX
8
TABLE
10
133.106003
20
82.958183
30
65.451332
70
192
0
VERTEX
8
TABLE
10
74.944473
20
8.885183
30
65.451363
70
192
0
VERTEX
8
TABLE
10
130.757004
20
79.966545
30
60.892429
70
192
0
VERTEX
8
TABLE
10
128.407303
20
76.973999
30
55.768120
70
192
0
VERTEX
8
TABLE
10
125.795486
20
73.647713
30
49.257721
70
192
0
VERTEX
8
TABLE
10
123.312729
20
70.485703
30
41.744114
70
192
0
VERTEX
8
TABLE
10
74.944473
20
8.885175
30
36.263599
70
192
0
VERTEX
8
TABLE
10
75.467300
20
9.551068
30
36.008724
70
192
0
VERTEX
8
TABLE
10
76.878860
20
11.348767
30
35.153168
70
192
0
VERTEX
8
TABLE
10
78.943497
20
13.978244
30
33.560547
70
192
0
VERTEX
8
TABLE
10
81.425674
20
17.139498
30
31.094469
70
192
0
VERTEX
8
TABLE
10
84.089890
20
20.532547
30
27.618565
70
192
0
VERTEX
8
TABLE
10
121.349960
20
67.985977
30
33.610146
70
192
0
VERTEX
8
TABLE
10
86.700516
20
23.857376
30
22.996433
70
192
0
VERTEX
8
TABLE
10
120.248245
20
66.582901
30
25.535995
70
192
0
VERTEX
8
TABLE
10
88.713882
20
26.421545
30
17.560743
70
192
0
VERTEX
8
TABLE
10
119.838028
20
66.060455
30
17.748236
70
192
0
VERTEX
8
TABLE
10
89.786392
20
27.787436
30
12.257113
70
192
0
VERTEX
8
TABLE
10
89.921890
20
27.960035
30
0.957017
70
192
0
VERTEX
8
TABLE
10
89.794235
20
27.797409
30
0.000032
70
192
0
VERTEX
8
TABLE
10
120.731216
20
67.197960
30
0.000013
70
192
0
VERTEX
8
TABLE
10
120.565842
20
66.987389
30
1.372762
70
192
0
VERTEX
8
TABLE
10
90.134048
20
28.230217
30
3.573423
70
192
0
VERTEX
8
TABLE
10
120.215866
20
66.541649
30
5.139667
70
192
0
VERTEX
8
TABLE
10
119.900223
20
66.139671
30
10.773803
70
192
0
VERTEX
8
TABLE
10
90.174332
20
28.281519
30
7.467395
70
192
0
VERTEX
8
TABLE
10
67.024948
20
15.041790
30
36.263599
70
192
0
VERTEX
8
TABLE
10
67.024979
20
15.041792
30
65.451355
70
192
0
VERTEX
8
TABLE
10
67.547806
20
15.707691
30
36.008724
70
192
0
VERTEX
8
TABLE
10
68.959366
20
17.505383
30
35.153168
70
192
0
VERTEX
8
TABLE
10
71.024002
20
20.134851
30
33.560539
70
192
0
VERTEX
8
TABLE
10
73.506180
20
23.296114
30
31.094469
70
192
0
VERTEX
8
TABLE
10
76.170364
20
26.689163
30
27.618563
70
192
0
VERTEX
8
TABLE
10
78.781021
20
30.013990
30
22.996428
70
192
0
VERTEX
8
TABLE
10
80.794388
20
32.578175
30
17.560740
70
192
0
VERTEX
8
TABLE
10
81.866867
20
33.944057
30
12.257108
70
192
0
VERTEX
8
TABLE
10
82.254807
20
34.438126
30
7.467389
70
192
0
VERTEX
8
TABLE
10
82.214554
20
34.386837
30
3.573417
70
192
0
VERTEX
8
TABLE
10
82.002396
20
34.116650
30
0.957016
70
192
0
VERTEX
8
TABLE
10
81.874710
20
33.954037
30
0.000030
70
192
0
VERTEX
8
TABLE
10
112.811691
20
73.354568
30
0.000011
70
192
0
VERTEX
8
TABLE
10
112.646378
20
73.144005
30
1.372760
70
192
0
VERTEX
8
TABLE
10
112.296371
20
72.698265
30
5.139665
70
192
0
VERTEX
8
TABLE
10
111.980728
20
72.296288
30
10.773801
70
192
0
VERTEX
8
TABLE
10
111.918533
20
72.217064
30
17.748234
70
192
0
VERTEX
8
TABLE
10
112.328751
20
72.739510
30
25.535995
70
192
0
VERTEX
8
TABLE
10
113.430435
20
74.142593
30
33.610142
70
192
0
VERTEX
8
TABLE
10
115.393204
20
76.642303
30
41.744110
70
192
0
VERTEX
8
TABLE
10
117.876022
20
79.804329
30
49.257721
70
192
0
VERTEX
8
TABLE
10
120.487747
20
83.130615
30
55.768116
70
192
0
VERTEX
8
TABLE
10
122.837479
20
86.123161
30
60.892429
70
192
0
VERTEX
8
TABLE
10
124.534073
20
88.283890
30
64.247795
70
192
0
VERTEX
8
TABLE
10
125.186478
20
89.114799
30
65.451332
70
192
0
VERTEX
8
TABLE
10
-75.365051
20
-9.000008
30
65.471748
70
192
0
VERTEX
8
TABLE
10
-67.449707
20
-15.041807
30
65.471748
70
192
0
VERTEX
8
TABLE
10
-67.449570
20
15.041822
30
65.471748
70
192
0
VERTEX
8
TABLE
10
-75.365051
20
9.000006
30
65.471748
70
192
0
VERTEX
8
TABLE
10
-75.365051
20
-9.000000
30
36.284000
70
192
0
VERTEX
8
TABLE
10
-67.449707
20
-15.041816
30
36.284012
70
192
0
VERTEX
8
TABLE
10
-67.449570
20
15.041805
30
36.283993
70
192
0
VERTEX
8
TABLE
10
-75.365051
20
8.999990
30
36.284000
70
192
0
VERTEX
8
TABLE
10
-132.878159
20
-82.127251
30
64.247856
70
192
0
VERTEX
8
TABLE
10
-133.530594
20
-82.958168
30
65.451401
70
192
0
VERTEX
8
TABLE
10
-75.369019
20
-8.885178
30
65.451363
70
192
0
VERTEX
8
TABLE
10
-131.181564
20
-79.966537
30
60.892498
70
192
0
VERTEX
8
TABLE
10
-128.831863
20
-76.973984
30
55.768181
70
192
0
VERTEX
8
TABLE
10
-126.220047
20
-73.647713
30
49.257782
70
192
0
VERTEX
8
TABLE
10
-123.737289
20
-70.485710
30
41.744167
70
192
0
VERTEX
8
TABLE
10
-75.369019
20
-8.885193
30
36.263599
70
192
0
VERTEX
8
TABLE
10
-75.891876
20
-9.551086
30
36.008724
70
192
0
VERTEX
8
TABLE
10
-77.303421
20
-11.348785
30
35.153175
70
192
0
VERTEX
8
TABLE
10
-79.368057
20
-13.978256
30
33.560555
70
192
0
VERTEX
8
TABLE
10
-81.850235
20
-17.139519
30
31.094486
70
192
0
VERTEX
8
TABLE
10
-84.514450
20
-20.532570
30
27.618580
70
192
0
VERTEX
8
TABLE
10
-121.774521
20
-67.985985
30
33.610199
70
192
0
VERTEX
8
TABLE
10
-87.125092
20
-23.857401
30
22.996450
70
192
0
VERTEX
8
TABLE
10
-120.672836
20
-66.582909
30
25.536049
70
192
0
VERTEX
8
TABLE
10
-89.138474
20
-26.421589
30
17.560764
70
192
0
VERTEX
8
TABLE
10
-120.262619
20
-66.060463
30
17.748289
70
192
0
VERTEX
8
TABLE
10
-90.210953
20
-27.787479
30
12.257133
70
192
0
VERTEX
8
TABLE
10
-90.346481
20
-27.960085
30
0.957034
70
192
0
VERTEX
8
TABLE
10
-90.218796
20
-27.797462
30
0.000049
70
192
0
VERTEX
8
TABLE
10
-121.155777
20
-67.197983
30
0.000068
70
192
0
VERTEX
8
TABLE
10
-120.990402
20
-66.987411
30
1.372813
70
192
0
VERTEX
8
TABLE
10
-90.558624
20
-28.230263
30
3.573443
70
192
0
VERTEX
8
TABLE
10
-120.640427
20
-66.541672
30
5.139718
70
192
0
VERTEX
8
TABLE
10
-120.324814
20
-66.139694
30
10.773853
70
192
0
VERTEX
8
TABLE
10
-90.598877
20
-28.281561
30
7.467415
70
192
0
VERTEX
8
TABLE
10
-67.449509
20
-15.041800
30
36.263603
70
192
0
VERTEX
8
TABLE
10
-67.449524
20
-15.041792
30
65.451363
70
192
0
VERTEX
8
TABLE
10
-67.972366
20
-15.707702
30
36.008728
70
192
0
VERTEX
8
TABLE
10
-69.383911
20
-17.505362
30
35.153175
70
192
0
VERTEX
8
TABLE
10
-71.448547
20
-20.134840
30
33.560555
70
192
0
VERTEX
8
TABLE
10
-73.930740
20
-23.296127
30
31.094486
70
192
0
VERTEX
8
TABLE
10
-76.594940
20
-26.689171
30
27.618582
70
192
0
VERTEX
8
TABLE
10
-79.205566
20
-30.014017
30
22.996450
70
192
0
VERTEX
8
TABLE
10
-81.218964
20
-32.578201
30
17.560764
70
192
0
VERTEX
8
TABLE
10
-82.291428
20
-33.944080
30
12.257135
70
192
0
VERTEX
8
TABLE
10
-82.679382
20
-34.438145
30
7.467417
70
192
0
VERTEX
8
TABLE
10
-82.639099
20
-34.386860
30
3.573445
70
192
0
VERTEX
8
TABLE
10
-82.426956
20
-34.116676
30
0.957036
70
192
0
VERTEX
8
TABLE
10
-82.299286
20
-33.954063
30
0.000050
70
192
0
VERTEX
8
TABLE
10
-113.236252
20
-73.354599
30
0.000070
70
192
0
VERTEX
8
TABLE
10
-113.070938
20
-73.144028
30
1.372815
70
192
0
VERTEX
8
TABLE
10
-112.720932
20
-72.698288
30
5.139719
70
192
0
VERTEX
8
TABLE
10
-112.405289
20
-72.296310
30
10.773857
70
192
0
VERTEX
8
TABLE
10
-112.343094
20
-72.217064
30
17.748289
70
192
0
VERTEX
8
TABLE
10
-112.753342
20
-72.739525
30
25.536049
70
192
0
VERTEX
8
TABLE
10
-113.854996
20
-74.142601
30
33.610203
70
192
0
VERTEX
8
TABLE
10
-115.817764
20
-76.642326
30
41.744171
70
192
0
VERTEX
8
TABLE
10
-118.300583
20
-79.804329
30
49.257790
70
192
0
VERTEX
8
TABLE
10
-120.912338
20
-83.130600
30
55.768185
70
192
0
VERTEX
8
TABLE
10
-123.262070
20
-86.123154
30
60.892498
70
192
0
VERTEX
8
TABLE
10
-124.958633
20
-88.283867
30
64.247864
70
192
0
VERTEX
8
TABLE
10
-125.611069
20
-89.114784
30
65.451401
70
192
0
VERTEX
8
TABLE
10
-75.369034
20
8.885183
30
65.451363
70
192
0
VERTEX
8
TABLE
10
-133.530594
20
82.958199
30
65.451332
70
192
0
VERTEX
8
TABLE
10
-132.878159
20
82.127289
30
64.247795
70
192
0
VERTEX
8
TABLE
10
-131.181564
20
79.966560
30
60.892429
70
192
0
VERTEX
8
TABLE
10
-128.831863
20
76.974022
30
55.768120
70
192
0
VERTEX
8
TABLE
10
-126.220047
20
73.647728
30
49.257721
70
192
0
VERTEX
8
TABLE
10
-123.737289
20
70.485718
30
41.744114
70
192
0
VERTEX
8
TABLE
10
-75.369034
20
8.885175
30
36.263599
70
192
0
VERTEX
8
TABLE
10
-75.891891
20
9.551076
30
36.008724
70
192
0
VERTEX
8
TABLE
10
-77.303436
20
11.348767
30
35.153168
70
192
0
VERTEX
8
TABLE
10
-79.368073
20
13.978244
30
33.560547
70
192
0
VERTEX
8
TABLE
10
-81.850250
20
17.139505
30
31.094469
70
192
0
VERTEX
8
TABLE
10
-84.514465
20
20.532547
30
27.618565
70
192
0
VERTEX
8
TABLE
10
-121.774521
20
67.985992
30
33.610146
70
192
0
VERTEX
8
TABLE
10
-87.125092
20
23.857376
30
22.996433
70
192
0
VERTEX
8
TABLE
10
-120.672836
20
66.582916
30
25.535995
70
192
0
VERTEX
8
TABLE
10
-89.138474
20
26.421545
30
17.560743
70
192
0
VERTEX
8
TABLE
10
-120.262619
20
66.060471
30
17.748236
70
192
0
VERTEX
8
TABLE
10
-90.210953
20
27.787436
30
12.257113
70
192
0
VERTEX
8
TABLE
10
-121.155777
20
67.197975
30
0.000013
70
192
0
VERTEX
8
TABLE
10
-90.218796
20
27.797409
30
0.000032
70
192
0
VERTEX
8
TABLE
10
-90.346481
20
27.960035
30
0.957017
70
192
0
VERTEX
8
TABLE
10
-120.990402
20
66.987404
30
1.372762
70
192
0
VERTEX
8
TABLE
10
-90.558624
20
28.230217
30
3.573423
70
192
0
VERTEX
8
TABLE
10
-120.640427
20
66.541656
30
5.139667
70
192
0
VERTEX
8
TABLE
10
-120.324814
20
66.139687
30
10.773803
70
192
0
VERTEX
8
TABLE
10
-90.598892
20
28.281519
30
7.467395
70
192
0
VERTEX
8
TABLE
10
-67.449524
20
15.041798
30
36.263599
70
192
0
VERTEX
8
TABLE
10
-67.449539
20
15.041792
30
65.451355
70
192
0
VERTEX
8
TABLE
10
-67.972382
20
15.707691
30
36.008724
70
192
0
VERTEX
8
TABLE
10
-69.383926
20
17.505390
30
35.153168
70
192
0
VERTEX
8
TABLE
10
-71.448563
20
20.134851
30
33.560539
70
192
0
VERTEX
8
TABLE
10
-73.930756
20
23.296114
30
31.094469
70
192
0
VERTEX
8
TABLE
10
-76.594955
20
26.689163
30
27.618563
70
192
0
VERTEX
8
TABLE
10
-79.205582
20
30.013990
30
22.996428
70
192
0
VERTEX
8
TABLE
10
-81.218964
20
32.578194
30
17.560740
70
192
0
VERTEX
8
TABLE
10
-82.291443
20
33.944077
30
12.257108
70
192
0
VERTEX
8
TABLE
10
-82.679382
20
34.438145
30
7.467389
70
192
0
VERTEX
8
TABLE
10
-82.639114
20
34.386856
30
3.573417
70
192
0
VERTEX
8
TABLE
10
-82.426956
20
34.116669
30
0.957016
70
192
0
VERTEX
8
TABLE
10
-82.299286
20
33.954056
30
0.000030
70
192
0
VERTEX
8
TABLE
10
-113.236252
20
73.354591
30
0.000011
70
192
0
VERTEX
8
TABLE
10
-113.070938
20
73.144020
30
1.372760
70
192
0
VERTEX
8
TABLE
10
-112.720932
20
72.698280
30
5.139665
70
192
0
VERTEX
8
TABLE
10
-112.405289
20
72.296303
30
10.773801
70
192
0
VERTEX
8
TABLE
10
-112.343094
20
72.217079
30
17.748234
70
192
0
VERTEX
8
TABLE
10
-112.753342
20
72.739525
30
25.535995
70
192
0
VERTEX
8
TABLE
10
-113.854996
20
74.142609
30
33.610142
70
192
0
VERTEX
8
TABLE
10
-115.817764
20
76.642319
30
41.744110
70
192
0
VERTEX
8
TABLE
10
-118.300583
20
79.804344
30
49.257721
70
192
0
VERTEX
8
TABLE
10
-120.912338
20
83.130630
30
55.768116
70
192
0
VERTEX
8
TABLE
10
-123.262070
20
86.123177
30
60.892429
70
192
0
VERTEX
8
TABLE
10
-124.958633
20
88.283905
30
64.247795
70
192
0
VERTEX
8
TABLE
10
-125.611069
20
89.114815
30
65.451332
70
192
0
VERTEX
8
TABLE
10
-142.546219
20
93.517601
30
65.451324
70
192
0
VERTEX
8
TABLE
10
142.566238
20
93.517601
30
65.451309
70
192
0
VERTEX
8
TABLE
10
73.374954
20
7.648452
30
65.451363
70
192
0
VERTEX
8
TABLE
10
-73.355042
20
7.648452
30
65.451370
70
192
0
VERTEX
8
TABLE
10
-143.705063
20
94.999992
30
67.424866
70
192
0
VERTEX
8
TABLE
10
-73.355042
20
7.648452
30
67.823563
70
192
0
VERTEX
8
TABLE
10
143.724930
20
94.999992
30
67.424843
70
192
0
VERTEX
8
TABLE
10
73.374954
20
7.648452
30
67.823555
70
192
0
VERTEX
8
TABLE
10
-143.705063
20
94.999992
30
70.594376
70
192
0
VERTEX
8
TABLE
10
-73.355042
20
7.648453
30
70.195755
70
192
0
VERTEX
8
TABLE
10
143.724930
20
94.999992
30
70.594353
70
192
0
VERTEX
8
TABLE
10
73.374954
20
7.648453
30
70.195740
70
192
0
VERTEX
8
TABLE
10
-142.546219
20
93.517609
30
72.567909
70
192
0
VERTEX
8
TABLE
10
-73.355042
20
7.648453
30
72.567947
70
192
0
VERTEX
8
TABLE
10
142.566238
20
93.517609
30
72.567894
70
192
0
VERTEX
8
TABLE
10
73.374954
20
7.648453
30
72.567940
70
192
0
VERTEX
8
TABLE
10
73.374954
20
-7.648414
30
65.451363
70
192
0
VERTEX
8
TABLE
10
142.566238
20
-93.517586
30
65.451385
70
192
0
VERTEX
8
TABLE
10
-142.546219
20
-93.517586
30
65.451401
70
192
0
VERTEX
8
TABLE
10
-73.355042
20
-7.648414
30
65.451370
70
192
0
VERTEX
8
TABLE
10
-143.705063
20
-94.999977
30
67.424942
70
192
0
VERTEX
8
TABLE
10
-73.355042
20
-7.648413
30
67.823563
70
192
0
VERTEX
8
TABLE
10
143.724930
20
-94.999977
30
67.424919
70
192
0
VERTEX
8
TABLE
10
73.374954
20
-7.648413
30
67.823555
70
192
0
VERTEX
8
TABLE
10
-143.705063
20
-94.999977
30
70.594444
70
192
0
VERTEX
8
TABLE
10
-73.355042
20
-7.648412
30
70.195763
70
192
0
VERTEX
8
TABLE
10
143.724930
20
-94.999977
30
70.594421
70
192
0
VERTEX
8
TABLE
10
73.374954
20
-7.648412
30
70.195747
70
192
0
VERTEX
8
TABLE
10
-142.546219
20
-93.517586
30
72.567978
70
192
0
VERTEX
8
TABLE
10
-73.355042
20
-7.648411
30
72.567955
70
192
0
VERTEX
8
TABLE
10
142.566238
20
-93.517586
30
72.567963
70
192
0
VERTEX
8
TABLE
10
73.374954
20
-7.648411
30
72.567947
70
192
0
VERTEX
8
TABLE
10
-144.171066
20
91.261566
30
65.451324
70
192
0
VERTEX
8
TABLE
10
-142.769913
20
93.589287
30
65.451324
70
192
0
VERTEX
8
TABLE
10
-73.523270
20
7.648452
30
65.451363
70
192
0
VERTEX
8
TABLE
10
-149.940506
20
80.925919
30
65.451332
70
192
0
VERTEX
8
TABLE
10
-73.523270
20
-7.648414
30
65.451363
70
192
0
VERTEX
8
TABLE
10
-142.710739
20
-93.517525
30
65.451385
70
192
0
VERTEX
8
TABLE
10
-144.171066
20
-91.261559
30
65.451385
70
192
0
VERTEX
8
TABLE
10
-149.940506
20
-80.925896
30
65.451378
70
192
0
VERTEX
8
TABLE
10
-157.440781
20
65.312492
30
65.451332
70
192
0
VERTEX
8
TABLE
10
-157.440781
20
-65.312485
30
65.451378
70
192
0
VERTEX
8
TABLE
10
-164.941055
20
-45.740723
30
65.451370
70
192
0
VERTEX
8
TABLE
10
-164.941055
20
45.740742
30
65.451340
70
192
0
VERTEX
8
TABLE
10
-170.710495
20
23.530094
30
65.451355
70
192
0
VERTEX
8
TABLE
10
-170.710495
20
-23.530071
30
65.451355
70
192
0
VERTEX
8
TABLE
10
-173.018265
20
0.000007
30
65.451355
70
192
0
VERTEX
8
TABLE
10
-143.873276
20
-94.999977
30
67.423271
70
192
0
VERTEX
8
TABLE
10
-73.523270
20
-7.648413
30
67.823555
70
192
0
VERTEX
8
TABLE
10
-146.181046
20
-91.261559
30
67.423271
70
192
0
VERTEX
8
TABLE
10
-151.950516
20
-80.925896
30
67.423264
70
192
0
VERTEX
8
TABLE
10
-159.450760
20
-65.312477
30
67.423264
70
192
0
VERTEX
8
TABLE
10
-166.951035
20
-45.740723
30
67.423256
70
192
0
VERTEX
8
TABLE
10
-172.720505
20
-23.530071
30
67.423241
70
192
0
VERTEX
8
TABLE
10
-175.028275
20
0.000008
30
67.423241
70
192
0
VERTEX
8
TABLE
10
-172.720505
20
23.530096
30
67.423241
70
192
0
VERTEX
8
TABLE
10
-166.951035
20
45.740742
30
67.423225
70
192
0
VERTEX
8
TABLE
10
-159.450760
20
65.312500
30
67.423225
70
192
0
VERTEX
8
TABLE
10
-151.950516
20
80.925919
30
67.423225
70
192
0
VERTEX
8
TABLE
10
-146.181046
20
91.261566
30
67.423218
70
192
0
VERTEX
8
TABLE
10
-143.873276
20
94.999992
30
67.423218
70
192
0
VERTEX
8
TABLE
10
-73.523270
20
7.648452
30
67.823555
70
192
0
VERTEX
8
TABLE
10
-143.873276
20
-94.999977
30
70.596077
70
192
0
VERTEX
8
TABLE
10
-73.523270
20
-7.648412
30
70.195747
70
192
0
VERTEX
8
TABLE
10
-146.181046
20
-91.261559
30
70.596069
70
192
0
VERTEX
8
TABLE
10
-151.950516
20
-80.925896
30
70.596077
70
192
0
VERTEX
8
TABLE
10
-159.450760
20
-65.312477
30
70.596069
70
192
0
VERTEX
8
TABLE
10
-166.951035
20
-45.740723
30
70.596069
70
192
0
VERTEX
8
TABLE
10
-172.720505
20
-23.530069
30
70.596054
70
192
0
VERTEX
8
TABLE
10
-175.028275
20
0.000009
30
70.596054
70
192
0
VERTEX
8
TABLE
10
-172.720505
20
23.530098
30
70.596046
70
192
0
VERTEX
8
TABLE
10
-166.951035
20
45.740746
30
70.596039
70
192
0
VERTEX
8
TABLE
10
-159.450760
20
65.312500
30
70.596031
70
192
0
VERTEX
8
TABLE
10
-151.950516
20
80.925926
30
70.596031
70
192
0
VERTEX
8
TABLE
10
-146.181046
20
91.261566
30
70.596031
70
192
0
VERTEX
8
TABLE
10
-143.873276
20
94.999992
30
70.596024
70
192
0
VERTEX
8
TABLE
10
-73.523270
20
7.648453
30
70.195740
70
192
0
VERTEX
8
TABLE
10
-142.710739
20
-93.517525
30
72.567963
70
192
0
VERTEX
8
TABLE
10
-73.523270
20
-7.648411
30
72.567947
70
192
0
VERTEX
8
TABLE
10
-144.171066
20
-91.261559
30
72.567963
70
192
0
VERTEX
8
TABLE
10
-149.940506
20
-80.925896
30
72.567963
70
192
0
VERTEX
8
TABLE
10
-157.440781
20
-65.312477
30
72.567963
70
192
0
VERTEX
8
TABLE
10
-164.941055
20
-45.740723
30
72.567955
70
192
0
VERTEX
8
TABLE
10
-170.710495
20
-23.530069
30
72.567940
70
192
0
VERTEX
8
TABLE
10
-173.018265
20
0.000009
30
72.567940
70
192
0
VERTEX
8
TABLE
10
-170.710495
20
23.530096
30
72.567932
70
192
0
VERTEX
8
TABLE
10
-164.941055
20
45.740746
30
72.567924
70
192
0
VERTEX
8
TABLE
10
-157.440781
20
65.312500
30
72.567917
70
192
0
VERTEX
8
TABLE
10
-149.940506
20
80.925926
30
72.567917
70
192
0
VERTEX
8
TABLE
10
-144.171066
20
91.261574
30
72.567909
70
192
0
VERTEX
8
TABLE
10
-142.769913
20
93.589294
30
72.567909
70
192
0
VERTEX
8
TABLE
10
-73.523270
20
7.648453
30
72.567940
70
192
0
VERTEX
8
TABLE
10
73.523270
20
7.648452
30
65.451363
70
192
0
VERTEX
8
TABLE
10
142.769913
20
93.589287
30
65.451324
70
192
0
VERTEX
8
TABLE
10
144.171066
20
91.261566
30
65.451324
70
192
0
VERTEX
8
TABLE
10
149.940506
20
80.925919
30
65.451332
70
192
0
VERTEX
8
TABLE
10
144.171066
20
-91.261559
30
65.451385
70
192
0
VERTEX
8
TABLE
10
142.710770
20
-93.517525
30
65.451385
70
192
0
VERTEX
8
TABLE
10
73.523270
20
-7.648414
30
65.451363
70
192
0
VERTEX
8
TABLE
10
149.940506
20
-80.925896
30
65.451378
70
192
0
VERTEX
8
TABLE
10
157.440781
20
65.312492
30
65.451332
70
192
0
VERTEX
8
TABLE
10
157.440781
20
-65.312485
30
65.451378
70
192
0
VERTEX
8
TABLE
10
164.941055
20
-45.740723
30
65.451370
70
192
0
VERTEX
8
TABLE
10
164.941055
20
45.740742
30
65.451340
70
192
0
VERTEX
8
TABLE
10
170.710495
20
23.530094
30
65.451355
70
192
0
VERTEX
8
TABLE
10
170.710495
20
-23.530071
30
65.451355
70
192
0
VERTEX
8
TABLE
10
173.018295
20
0.000007
30
65.451355
70
192
0
VERTEX
8
TABLE
10
143.873276
20
-94.999977
30
67.423271
70
192
0
VERTEX
8
TABLE
10
73.523270
20
-7.648413
30
67.823555
70
192
0
VERTEX
8
TABLE
10
146.181076
20
-91.261559
30
67.423271
70
192
0
VERTEX
8
TABLE
10
151.950516
20
-80.925896
30
67.423264
70
192
0
VERTEX
8
TABLE
10
159.450790
20
-65.312477
30
67.423264
70
192
0
VERTEX
8
TABLE
10
166.951065
20
-45.740723
30
67.423256
70
192
0
VERTEX
8
TABLE
10
172.720505
20
-23.530071
30
67.423241
70
192
0
VERTEX
8
TABLE
10
175.028275
20
0.000008
30
67.423241
70
192
0
VERTEX
8
TABLE
10
172.720505
20
23.530096
30
67.423241
70
192
0
VERTEX
8
TABLE
10
166.951065
20
45.740742
30
67.423225
70
192
0
VERTEX
8
TABLE
10
159.450790
20
65.312500
30
67.423225
70
192
0
VERTEX
8
TABLE
10
151.950516
20
80.925919
30
67.423225
70
192
0
VERTEX
8
TABLE
10
146.181046
20
91.261566
30
67.423218
70
192
0
VERTEX
8
TABLE
10
143.873276
20
94.999992
30
67.423218
70
192
0
VERTEX
8
TABLE
10
73.523270
20
7.648452
30
67.823555
70
192
0
VERTEX
8
TABLE
10
143.873276
20
-94.999977
30
70.596077
70
192
0
VERTEX
8
TABLE
10
73.523270
20
-7.648412
30
70.195747
70
192
0
VERTEX
8
TABLE
10
146.181076
20
-91.261559
30
70.596069
70
192
0
VERTEX
8
TABLE
10
151.950516
20
-80.925896
30
70.596077
70
192
0
VERTEX
8
TABLE
10
159.450790
20
-65.312477
30
70.596069
70
192
0
VERTEX
8
TABLE
10
166.951065
20
-45.740723
30
70.596069
70
192
0
VERTEX
8
TABLE
10
172.720505
20
-23.530069
30
70.596054
70
192
0
VERTEX
8
TABLE
10
175.028275
20
0.000009
30
70.596054
70
192
0
VERTEX
8
TABLE
10
172.720505
20
23.530098
30
70.596046
70
192
0
VERTEX
8
TABLE
10
166.951065
20
45.740746
30
70.596039
70
192
0
VERTEX
8
TABLE
10
159.450790
20
65.312500
30
70.596031
70
192
0
VERTEX
8
TABLE
10
151.950516
20
80.925926
30
70.596031
70
192
0
VERTEX
8
TABLE
10
146.181046
20
91.261566
30
70.596031
70
192
0
VERTEX
8
TABLE
10
143.873276
20
94.999992
30
70.596024
70
192
0
VERTEX
8
TABLE
10
73.523270
20
7.648453
30
70.195740
70
192
0
VERTEX
8
TABLE
10
142.710770
20
-93.517525
30
72.567963
70
192
0
VERTEX
8
TABLE
10
73.523270
20
-7.648411
30
72.567947
70
192
0
VERTEX
8
TABLE
10
144.171066
20
-91.261559
30
72.567963
70
192
0
VERTEX
8
TABLE
10
149.940506
20
-80.925896
30
72.567963
70
192
0
VERTEX
8
TABLE
10
157.440781
20
-65.312477
30
72.567963
70
192
0
VERTEX
8
TABLE
10
164.941055
20
-45.740723
30
72.567955
70
192
0
VERTEX
8
TABLE
10
170.710495
20
-23.530069
30
72.567940
70
192
0
VERTEX
8
TABLE
10
173.018295
20
0.000009
30
72.567940
70
192
0
VERTEX
8
TABLE
10
170.710495
20
23.530096
30
72.567932
70
192
0
VERTEX
8
TABLE
10
164.941055
20
45.740746
30
72.567924
70
192
0
VERTEX
8
TABLE
10
157.440781
20
65.312500
30
72.567917
70
192
0
VERTEX
8
TABLE
10
149.940506
20
80.925926
30
72.567917
70
192
0
VERTEX
8
TABLE
10
144.171066
20
91.261574
30
72.567909
70
192
0
VERTEX
8
TABLE
10
142.769913
20
93.589294
30
72.567909
70
192
0
VERTEX
8
TABLE
10
73.523270
20
7.648453
30
72.567940
70
192
0
VERTEX
8
TABLE
10
0
20
0
30
0
70
128
71
1
72
2
73
3
0
VERTEX
8
TABLE
10
0
20
0
30
0
70
128
71
4
72
1
73
3
0
VERTEX
8
TABLE
10
0
20
0
30
0
70
128
71
1
72
4
73
5
0
VERTEX
8
TABLE
10
0
20
0
30
0
70
128
71
1
72
5
73
6
0
VERTEX
8
TABLE
10
0
20
0
30
0
70
128
71
4
72
3
73
7
0
VERTEX
8
TABLE
10
0
20
0
30
0
70
128
71
4
72
7
73
5
0
VERTEX
8
TABLE
10
0
20
0
30
0
70
128
71
3
72
2
73
8
0
VERTEX
8
TABLE
10
0
20
0
30
0
70
128
71
3
72
8
73
7
0
VERTEX
8
TABLE
10
0
20
0
30
0
70
128
71
2
72
1
73
6
0
VERTEX
8
TABLE
10
0
20
0
30
0
70
128
71
2
72
6
73
8
0
VERTEX
8
TABLE
10
0
20
0
30
0
70
128
71
7
72
8
73
6
0
VERTEX
8
TABLE
10
0
20
0
30
0
70
128
71
7
72
6
73
5
0
VERTEX
8
TABLE
10
0
20
0
30
0
70
128
71
9
72
10
73
11
0
VERTEX
8
TABLE
10
0
20
0
30
0
70
128
71
12
72
9
73
11
0
VERTEX
8
TABLE
10
0
20
0
30
0
70
128
71
13
72
14
73
11
0
VERTEX
8
TABLE
10
0
20
0
30
0
70
128
71
10
72
13
73
11
0
VERTEX
8
TABLE
10
0
20
0
30
0
70
128
71
15
72
13
73
10
0
VERTEX
8
TABLE
10
0
20
0
30
0
70
128
71
9
72
15
73
10
0
VERTEX
8
TABLE
10
0
20
0
30
0
70
128
71
16
72
15
73
9
0
VERTEX
8
TABLE
10
0
20
0
30
0
70
128
71
12
72
16
73
9
0
VERTEX
8
TABLE
10
0
20
0
30
0
70
128
71
14
72
16
73
12
0
VERTEX
8
TABLE
10
0
20
0
30
0
70
128
71
11
72
14
73
12
0
VERTEX
8
TABLE
10
0
20
0
30
0
70
128
71
15
72
16
73
14
0
VERTEX
8
TABLE
10
0
20
0
30
0
70
128
71
13
72
15
73
14
0
VERTEX
8
TABLE
10
0
20
0
30
0
70
128
71
17
72
18
73
19
0
VERTEX
8
TABLE
10
0
20
0
30
0
70
128
71
17
72
19
73
20
0
VERTEX
8
TABLE
10
0
20
0
30
0
70
128
71
17
72
20
73
21
0
VERTEX
8
TABLE
10
0
20
0
30
0
70
128
71
17
72
21
73
22
0
VERTEX
8
TABLE
10
0
20
0
30
0
70
128
71
17
72
22
73
23
0
VERTEX
8
TABLE
10
0
20
0
30
0
70
128
71
24
72
17
73
23
0
VERTEX
8
TABLE
10
0
20
0
30
0
70
128
71
25
72
24
73
23
0
VERTEX
8
TABLE
10
0
20
0
30
0
70
128
71
26
72
25
73
23
0
VERTEX
8
TABLE
10
0
20
0
30
0
70
128
71
27
72
26
73
23
0
VERTEX
8
TABLE
10
0
20
0
30
0
70
128
71
28
72
27
73
23
0
VERTEX
8
TABLE
10
0
20
0
30
0
70
128
71
29
72
28
73
23
0
VERTEX
8
TABLE
10
0
20
0
30
0
70
128
71
29
72
23
73
30
0
VERTEX
8
TABLE
10
0
20
0
30
0
70
128
71
31
72
29
73
30
0
VERTEX
8
TABLE
10
0
20
0
30
0
70
128
71
31
72
30
73
32
0
VERTEX
8
TABLE
10
0
20
0
30
0
70
128
71
33
72
31
73
32
0
VERTEX
8
TABLE
10
0
20
0
30
0
70
128
71
33
72
32
73
34
0
VERTEX
8
TABLE
10
0
20
0
30
0
70
128
71
35
72
33
73
34
0
VERTEX
8
TABLE
10
0
20
0
30
0
70
128
71
36
72
37
73
38
0
VERTEX
8
TABLE
10
0
20
0
30
0
70
128
71
39
72
36
73
38
0
VERTEX
8
TABLE
10
0
20
0
30
0
70
128
71
39
72
38
73
40
0
VERTEX
8
TABLE
10
0
20
0
30
0
70
128
71
41
72
39
73
40
0
VERTEX
8
TABLE
10
0
20
0
30
0
70
128
71
35
72
34
73
42
0
VERTEX
8
TABLE
10
0
20
0
30
0
70
128
71
43
72
35
73
42
0
VERTEX
8
TABLE
10
0
20
0
30
0
70
128
71
41
72
40
73
43
0
VERTEX
8
TABLE
10
0
20
0
30
0
70
128
71
41
72
43
73
42
0
VERTEX
8
TABLE
10
0
20
0
30
0
70
128
71
17
72
24
73
44
0
VERTEX
8
TABLE
10
0
20
0
30
0
70
128
71
17
72
44
73
45
0
VERTEX
8
TABLE
10
0
20
0
30
0
70
128
71
24
72
25
73
46
0
VERTEX
8
TABLE
10
0
20
0
30
0
70
128
71
24
72
46
73
44
0
VERTEX
8
TABLE
10
0
20
0
30
0
70
128
71
25
72
26
73
47
0
VERTEX
8
TABLE
10
0
20
0
30
0
70
128
71
25
72
47
73
46
0
VERTEX
8
TABLE
10
0
20
0
30
0
70
128
71
26
72
27
73
48
0
VERTEX
8
TABLE
10
0
20
0
30
0
70
128
71
26
72
48
73
47
0
VERTEX
8
TABLE
10
0
20
0
30
0
70
128
71
27
72
28
73
49
0
VERTEX
8
TABLE
10
0
20
0
30
0
70
128
71
27
72
49
73
48
0
VERTEX
8
TABLE
10
0
20
0
30
0
70
128
71
28
72
29
73
50
0
VERTEX
8
TABLE
10
0
20
0
30
0
70
128
71
28
72
50
73
49
0
VERTEX
8
TABLE
10
0
20
0
30
0
70
128
71
29
72
31
73
51
0
VERTEX
8
TABLE
10
0
20
0
30
0
70
128
71
29
72
51
73
50
0
VERTEX
8
TABLE
10
0
20
0
30
0
70
128
71
31
72
33
73
52
0
VERTEX
8
TABLE
10
0
20
0
30
0
70
128
71
31
72
52
73
51
0
VERTEX
8
TABLE
10
0
20
0
30
0
70
128
71
33
72
35
73
53
0
VERTEX
8
TABLE
10
0
20
0
30
0
70
128
71
33
72
53
73
52
0
VERTEX
8
TABLE
10
0
20
0
30
0
70
128
71
35
72
43
73
54
0
VERTEX
8
TABLE
10
0
20
0
30
0
70
128
71
35
72
54
73
53
0
VERTEX
8
TABLE
10
0
20
0
30
0
70
128
71
43
72
40
73
55
0
VERTEX
8
TABLE
10
0
20
0
30
0
70
128
71
43
72
55
73
54
0
VERTEX
8
TABLE
10
0
20
0
30
0
70
128
71
40
72
38
73
56
0
VERTEX
8
TABLE
10
0
20
0
30
0
70
128
71
40
72
56
73
55
0
VERTEX
8
TABLE
10
0
20
0
30
0
70
128
71
38
72
37
73
57
0
VERTEX
8
TABLE
10
0
20
0
30
0
70
128
71
38
72
57
73
56
0
VERTEX
8
TABLE
10
0
20
0
30
0
70
128
71
37
72
36
73
58
0
VERTEX
8
TABLE
10
0
20
0
30
0
70
128
71
37
72
58
73
57
0
VERTEX
8
TABLE
10
0
20
0
30
0
70
128
71
36
72
39
73
59
0
VERTEX
8
TABLE
10
0
20
0
30
0
70
128
71
36
72
59
73
58
0
VERTEX
8
TABLE
10
0
20
0
30
0
70
128
71
39
72
41
73
60
0
VERTEX
8
TABLE
10
0
20
0
30
0
70
128
71
39
72
60
73
59
0
VERTEX
8
TABLE
10
0
20
0
30
0
70
128
71
41
72
42
73
61
0
VERTEX
8
TABLE
10
0
20
0
30
0
70
128
71
41
72
61
73
60
0
VERTEX
8
TABLE
10
0
20
0
30
0
70
128
71
42
72
34
73
62
0
VERTEX
8
TABLE
10
0
20
0
30
0
70
128
71
42
72
62
73
61
0
VERTEX
8
TABLE
10
0
20
0
30
0
70
128
71
34
72
32
73
63
0
VERTEX
8
TABLE
10
0
20
0
30
0
70
128
71
34
72
63
73
62
0
VERTEX
8
TABLE
10
0
20
0
30
0
70
128
71
32
72
30
73
64
0
VERTEX
8
TABLE
10
0
20
0
30
0
70
128
71
32
72
64
73
63
0
VERTEX
8
TABLE
10
0
20
0
30
0
70
128
71
30
72
23
73
65
0
VERTEX
8
TABLE
10
0
20
0
30
0
70
128
71
30
72
65
73
64
0
VERTEX
8
TABLE
10
0
20
0
30
0
70
128
71
23
72
22
73
66
0
VERTEX
8
TABLE
10
0
20
0
30
0
70
128
71
23
72
66
73
65
0
VERTEX
8
TABLE
10
0
20
0
30
0
70
128
71
22
72
21
73
67
0
VERTEX
8
TABLE
10
0
20
0
30
0
70
128
71
22
72
67
73
66
0
VERTEX
8
TABLE
10
0
20
0
30
0
70
128
71
21
72
20
73
68
0
VERTEX
8
TABLE
10
0
20
0
30
0
70
128
71
21
72
68
73
67
0
VERTEX
8
TABLE
10
0
20
0
30
0
70
128
71
20
72
19
73
69
0
VERTEX
8
TABLE
10
0
20
0
30
0
70
128
71
20
72
69
73
68
0
VERTEX
8
TABLE
10
0
20
0
30
0
70
128
71
19
72
18
73
70
0
VERTEX
8
TABLE
10
0
20
0
30
0
70
128
71
19
72
70
73
69
0
VERTEX
8
TABLE
10
0
20
0
30
0
70
128
71
18
72
17
73
45
0
VERTEX
8
TABLE
10
0
20
0
30
0
70
128
71
18
72
45
73
70
0
VERTEX
8
TABLE
10
0
20
0
30
0
70
128
71
69
72
70
73
45
0
VERTEX
8
TABLE
10
0
20
0
30
0
70
128
71
68
72
69
73
45
0
VERTEX
8
TABLE
10
0
20
0
30
0
70
128
71
67
72
68
73
45
0
VERTEX
8
TABLE
10
0
20
0
30
0
70
128
71
66
72
67
73
45
0
VERTEX
8
TABLE
10
0
20
0
30
0
70
128
71
65
72
66
73
45
0
VERTEX
8
TABLE
10
0
20
0
30
0
70
128
71
65
72
45
73
44
0
VERTEX
8
TABLE
10
0
20
0
30
0
70
128
71
65
72
44
73
46
0
VERTEX
8
TABLE
10
0
20
0
30
0
70
128
71
65
72
46
73
47
0
VERTEX
8
TABLE
10
0
20
0
30
0
70
128
71
65
72
47
73
48
0
VERTEX
8
TABLE
10
0
20
0
30
0
70
128
71
65
72
48
73
49
0
VERTEX
8
TABLE
10
0
20
0
30
0
70
128
71
65
72
49
73
50
0
VERTEX
8
TABLE
10
0
20
0
30
0
70
128
71
64
72
65
73
50
0
VERTEX
8
TABLE
10
0
20
0
30
0
70
128
71
64
72
50
73
51
0
VERTEX
8
TABLE
10
0
20
0
30
0
70
128
71
63
72
64
73
51
0
VERTEX
8
TABLE
10
0
20
0
30
0
70
128
71
63
72
51
73
52
0
VERTEX
8
TABLE
10
0
20
0
30
0
70
128
71
62
72
63
73
52
0
VERTEX
8
TABLE
10
0
20
0
30
0
70
128
71
62
72
52
73
53
0
VERTEX
8
TABLE
10
0
20
0
30
0
70
128
71
56
72
57
73
58
0
VERTEX
8
TABLE
10
0
20
0
30
0
70
128
71
56
72
58
73
59
0
VERTEX
8
TABLE
10
0
20
0
30
0
70
128
71
55
72
56
73
59
0
VERTEX
8
TABLE
10
0
20
0
30
0
70
128
71
55
72
59
73
60
0
VERTEX
8
TABLE
10
0
20
0
30
0
70
128
71
61
72
62
73
53
0
VERTEX
8
TABLE
10
0
20
0
30
0
70
128
71
61
72
53
73
54
0
VERTEX
8
TABLE
10
0
20
0
30
0
70
128
71
54
72
55
73
60
0
VERTEX
8
TABLE
10
0
20
0
30
0
70
128
71
61
72
54
73
60
0
VERTEX
8
TABLE
10
0
20
0
30
0
70
128
71
71
72
72
73
73
0
VERTEX
8
TABLE
10
0
20
0
30
0
70
128
71
74
72
71
73
73
0
VERTEX
8
TABLE
10
0
20
0
30
0
70
128
71
75
72
74
73
73
0
VERTEX
8
TABLE
10
0
20
0
30
0
70
128
71
76
72
75
73
73
0
VERTEX
8
TABLE
10
0
20
0
30
0
70
128
71
77
72
76
73
73
0
VERTEX
8
TABLE
10
0
20
0
30
0
70
128
71
77
72
73
73
78
0
VERTEX
8
TABLE
10
0
20
0
30
0
70
128
71
77
72
78
73
79
0
VERTEX
8
TABLE
10
0
20
0
30
0
70
128
71
77
72
79
73
80
0
VERTEX
8
TABLE
10
0
20
0
30
0
70
128
71
77
72
80
73
81
0
VERTEX
8
TABLE
10
0
20
0
30
0
70
128
71
77
72
81
73
82
0
VERTEX
8
TABLE
10
0
20
0
30
0
70
128
71
77
72
82
73
83
0
VERTEX
8
TABLE
10
0
20
0
30
0
70
128
71
84
72
77
73
83
0
VERTEX
8
TABLE
10
0
20
0
30
0
70
128
71
84
72
83
73
85
0
VERTEX
8
TABLE
10
0
20
0
30
0
70
128
71
86
72
84
73
85
0
VERTEX
8
TABLE
10
0
20
0
30
0
70
128
71
86
72
85
73
87
0
VERTEX
8
TABLE
10
0
20
0
30
0
70
128
71
88
72
86
73
87
0
VERTEX
8
TABLE
10
0
20
0
30
0
70
128
71
88
72
87
73
89
0
VERTEX
8
TABLE
10
0
20
0
30
0
70
128
71
90
72
91
73
92
0
VERTEX
8
TABLE
10
0
20
0
30
0
70
128
71
90
72
92
73
93
0
VERTEX
8
TABLE
10
0
20
0
30
0
70
128
71
94
72
90
73
93
0
VERTEX
8
TABLE
10
0
20
0
30
0
70
128
71
94
72
93
73
95
0
VERTEX
8
TABLE
10
0
20
0
30
0
70
128
71
96
72
88
73
89
0
VERTEX
8
TABLE
10
0
20
0
30
0
70
128
71
96
72
89
73
97
0
VERTEX
8
TABLE
10
0
20
0
30
0
70
128
71
97
72
94
73
95
0
VERTEX
8
TABLE
10
0
20
0
30
0
70
128
71
96
72
97
73
95
0
VERTEX
8
TABLE
10
0
20
0
30
0
70
128
71
98
72
78
73
73
0
VERTEX
8
TABLE
10
0
20
0
30
0
70
128
71
99
72
98
73
73
0
VERTEX
8
TABLE
10
0
20
0
30
0
70
128
71
100
72
79
73
78
0
VERTEX
8
TABLE
10
0
20
0
30
0
70
128
71
98
72
100
73
78
0
VERTEX
8
TABLE
10
0
20
0
30
0
70
128
71
101
72
80
73
79
0
VERTEX
8
TABLE
10
0
20
0
30
0
70
128
71
100
72
101
73
79
0
VERTEX
8
TABLE
10
0
20
0
30
0
70
128
71
102
72
81
73
80
0
VERTEX
8
TABLE
10
0
20
0
30
0
70
128
71
101
72
102
73
80
0
VERTEX
8
TABLE
10
0
20
0
30
0
70
128
71
103
72
82
73
81
0
VERTEX
8
TABLE
10
0
20
0
30
0
70
128
71
102
72
103
73
81
0
VERTEX
8
TABLE
10
0
20
0
30
0
70
128
71
104
72
83
73
82
0
VERTEX
8
TABLE
10
0
20
0
30
0
70
128
71
103
72
104
73
82
0
VERTEX
8
TABLE
10
0
20
0
30
0
70
128
71
105
72
85
73
83
0
VERTEX
8
TABLE
10
0
20
0
30
0
70
128
71
104
72
105
73
83
0
VERTEX
8
TABLE
10
0
20
0
30
0
70
128
71
106
72
87
73
85
0
VERTEX
8
TABLE
10
0
20
0
30
0
70
128
71
105
72
106
73
85
0
VERTEX
8
TABLE
10
0
20
0
30
0
70
128
71
107
72
89
73
87
0
VERTEX
8
TABLE
10
0
20
0
30
0
70
128
71
106
72
107
73
87
0
VERTEX
8
TABLE
10
0
20
0
30
0
70
128
71
108
72
97
73
89
0
VERTEX
8
TABLE
10
0
20
0
30
0
70
128
71
107
72
108
73
89
0
VERTEX
8
TABLE
10
0
20
0
30
0
70
128
71
109
72
94
73
97
0
VERTEX
8
TABLE
10
0
20
0
30
0
70
128
71
108
72
109
73
97
0
VERTEX
8
TABLE
10
0
20
0
30
0
70
128
71
110
72
90
73
94
0
VERTEX
8
TABLE
10
0
20
0
30
0
70
128
71
109
72
110
73
94
0
VERTEX
8
TABLE
10
0
20
0
30
0
70
128
71
111
72
91
73
90
0
VERTEX
8
TABLE
10
0
20
0
30
0
70
128
71
110
72
111
73
90
0
VERTEX
8
TABLE
10
0
20
0
30
0
70
128
71
112
72
92
73
91
0
VERTEX
8
TABLE
10
0
20
0
30
0
70
128
71
111
72
112
73
91
0
VERTEX
8
TABLE
10
0
20
0
30
0
70
128
71
113
72
93
73
92
0
VERTEX
8
TABLE
10
0
20
0
30
0
70
128
71
112
72
113
73
92
0
VERTEX
8
TABLE
10
0
20
0
30
0
70
128
71
114
72
95
73
93
0
VERTEX
8
TABLE
10
0
20
0
30
0
70
128
71
113
72
114
73
93
0
VERTEX
8
TABLE
10
0
20
0
30
0
70
128
71
115
72
96
73
95
0
VERTEX
8
TABLE
10
0
20
0
30
0
70
128
71
114
72
115
73
95
0
VERTEX
8
TABLE
10
0
20
0
30
0
70
128
71
116
72
88
73
96
0
VERTEX
8
TABLE
10
0
20
0
30
0
70
128
71
115
72
116
73
96
0
VERTEX
8
TABLE
10
0
20
0
30
0
70
128
71
117
72
86
73
88
0
VERTEX
8
TABLE
10
0
20
0
30
0
70
128
71
116
72
117
73
88
0
VERTEX
8
TABLE
10
0
20
0
30
0
70
128
71
118
72
84
73
86
0
VERTEX
8
TABLE
10
0
20
0
30
0
70
128
71
117
72
118
73
86
0
VERTEX
8
TABLE
10
0
20
0
30
0
70
128
71
119
72
77
73
84
0
VERTEX
8
TABLE
10
0
20
0
30
0
70
128
71
118
72
119
73
84
0
VERTEX
8
TABLE
10
0
20
0
30
0
70
128
71
120
72
76
73
77
0
VERTEX
8
TABLE
10
0
20
0
30
0
70
128
71
119
72
120
73
77
0
VERTEX
8
TABLE
10
0
20
0
30
0
70
128
71
121
72
75
73
76
0
VERTEX
8
TABLE
10
0
20
0
30
0
70
128
71
120
72
121
73
76
0
VERTEX
8
TABLE
10
0
20
0
30
0
70
128
71
122
72
74
73
75
0
VERTEX
8
TABLE
10
0
20
0
30
0
70
128
71
121
72
122
73
75
0
VERTEX
8
TABLE
10
0
20
0
30
0
70
128
71
123
72
71
73
74
0
VERTEX
8
TABLE
10
0
20
0
30
0
70
128
71
122
72
123
73
74
0
VERTEX
8
TABLE
10
0
20
0
30
0
70
128
71
124
72
72
73
71
0
VERTEX
8
TABLE
10
0
20
0
30
0
70
128
71
123
72
124
73
71
0
VERTEX
8
TABLE
10
0
20
0
30
0
70
128
71
99
72
73
73
72
0
VERTEX
8
TABLE
10
0
20
0
30
0
70
128
71
124
72
99
73
72
0
VERTEX
8
TABLE
10
0
20
0
30
0
70
128
71
99
72
124
73
123
0
VERTEX
8
TABLE
10
0
20
0
30
0
70
128
71
99
72
123
73
122
0
VERTEX
8
TABLE
10
0
20
0
30
0
70
128
71
99
72
122
73
121
0
VERTEX
8
TABLE
10
0
20
0
30
0
70
128
71
99
72
121
73
120
0
VERTEX
8
TABLE
10
0
20
0
30
0
70
128
71
99
72
120
73
119
0
VERTEX
8
TABLE
10
0
20
0
30
0
70
128
71
98
72
99
73
119
0
VERTEX
8
TABLE
10
0
20
0
30
0
70
128
71
100
72
98
73
119
0
VERTEX
8
TABLE
10
0
20
0
30
0
70
128
71
101
72
100
73
119
0
VERTEX
8
TABLE
10
0
20
0
30
0
70
128
71
102
72
101
73
119
0
VERTEX
8
TABLE
10
0
20
0
30
0
70
128
71
103
72
102
73
119
0
VERTEX
8
TABLE
10
0
20
0
30
0
70
128
71
104
72
103
73
119
0
VERTEX
8
TABLE
10
0
20
0
30
0
70
128
71
104
72
119
73
118
0
VERTEX
8
TABLE
10
0
20
0
30
0
70
128
71
105
72
104
73
118
0
VERTEX
8
TABLE
10
0
20
0
30
0
70
128
71
105
72
118
73
117
0
VERTEX
8
TABLE
10
0
20
0
30
0
70
128
71
106
72
105
73
117
0
VERTEX
8
TABLE
10
0
20
0
30
0
70
128
71
106
72
117
73
116
0
VERTEX
8
TABLE
10
0
20
0
30
0
70
128
71
107
72
106
73
116
0
VERTEX
8
TABLE
10
0
20
0
30
0
70
128
71
112
72
111
73
110
0
VERTEX
8
TABLE
10
0
20
0
30
0
70
128
71
113
72
112
73
110
0
VERTEX
8
TABLE
10
0
20
0
30
0
70
128
71
113
72
110
73
109
0
VERTEX
8
TABLE
10
0
20
0
30
0
70
128
71
114
72
113
73
109
0
VERTEX
8
TABLE
10
0
20
0
30
0
70
128
71
107
72
116
73
115
0
VERTEX
8
TABLE
10
0
20
0
30
0
70
128
71
108
72
107
73
115
0
VERTEX
8
TABLE
10
0
20
0
30
0
70
128
71
114
72
109
73
108
0
VERTEX
8
TABLE
10
0
20
0
30
0
70
128
71
114
72
108
73
115
0
VERTEX
8
TABLE
10
0
20
0
30
0
70
128
71
125
72
126
73
127
0
VERTEX
8
TABLE
10
0
20
0
30
0
70
128
71
125
72
127
73
128
0
VERTEX
8
TABLE
10
0
20
0
30
0
70
128
71
125
72
129
73
130
0
VERTEX
8
TABLE
10
0
20
0
30
0
70
128
71
125
72
130
73
126
0
VERTEX
8
TABLE
10
0
20
0
30
0
70
128
71
126
72
130
73
131
0
VERTEX
8
TABLE
10
0
20
0
30
0
70
128
71
126
72
131
73
127
0
VERTEX
8
TABLE
10
0
20
0
30
0
70
128
71
127
72
131
73
132
0
VERTEX
8
TABLE
10
0
20
0
30
0
70
128
71
127
72
132
73
128
0
VERTEX
8
TABLE
10
0
20
0
30
0
70
128
71
128
72
132
73
129
0
VERTEX
8
TABLE
10
0
20
0
30
0
70
128
71
128
72
129
73
125
0
VERTEX
8
TABLE
10
0
20
0
30
0
70
128
71
129
72
132
73
131
0
VERTEX
8
TABLE
10
0
20
0
30
0
70
128
71
129
72
131
73
130
0
VERTEX
8
TABLE
10
0
20
0
30
0
70
128
71
133
72
134
73
135
0
VERTEX
8
TABLE
10
0
20
0
30
0
70
128
71
136
72
133
73
135
0
VERTEX
8
TABLE
10
0
20
0
30
0
70
128
71
137
72
136
73
135
0
VERTEX
8
TABLE
10
0
20
0
30
0
70
128
71
138
72
137
73
135
0
VERTEX
8
TABLE
10
0
20
0
30
0
70
128
71
139
72
138
73
135
0
VERTEX
8
TABLE
10
0
20
0
30
0
70
128
71
139
72
135
73
140
0
VERTEX
8
TABLE
10
0
20
0
30
0
70
128
71
139
72
140
73
141
0
VERTEX
8
TABLE
10
0
20
0
30
0
70
128
71
139
72
141
73
142
0
VERTEX
8
TABLE
10
0
20
0
30
0
70
128
71
139
72
142
73
143
0
VERTEX
8
TABLE
10
0
20
0
30
0
70
128
71
139
72
143
73
144
0
VERTEX
8
TABLE
10
0
20
0
30
0
70
128
71
139
72
144
73
145
0
VERTEX
8
TABLE
10
0
20
0
30
0
70
128
71
146
72
139
73
145
0
VERTEX
8
TABLE
10
0
20
0
30
0
70
128
71
146
72
145
73
147
0
VERTEX
8
TABLE
10
0
20
0
30
0
70
128
71
148
72
146
73
147
0
VERTEX
8
TABLE
10
0
20
0
30
0
70
128
71
148
72
147
73
149
0
VERTEX
8
TABLE
10
0
20
0
30
0
70
128
71
150
72
148
73
149
0
VERTEX
8
TABLE
10
0
20
0
30
0
70
128
71
150
72
149
73
151
0
VERTEX
8
TABLE
10
0
20
0
30
0
70
128
71
152
72
153
73
154
0
VERTEX
8
TABLE
10
0
20
0
30
0
70
128
71
152
72
154
73
155
0
VERTEX
8
TABLE
10
0
20
0
30
0
70
128
71
156
72
152
73
155
0
VERTEX
8
TABLE
10
0
20
0
30
0
70
128
71
156
72
155
73
157
0
VERTEX
8
TABLE
10
0
20
0
30
0
70
128
71
158
72
150
73
151
0
VERTEX
8
TABLE
10
0
20
0
30
0
70
128
71
158
72
151
73
159
0
VERTEX
8
TABLE
10
0
20
0
30
0
70
128
71
159
72
156
73
157
0
VERTEX
8
TABLE
10
0
20
0
30
0
70
128
71
158
72
159
73
157
0
VERTEX
8
TABLE
10
0
20
0
30
0
70
128
71
160
72
140
73
135
0
VERTEX
8
TABLE
10
0
20
0
30
0
70
128
71
161
72
160
73
135
0
VERTEX
8
TABLE
10
0
20
0
30
0
70
128
71
162
72
141
73
140
0
VERTEX
8
TABLE
10
0
20
0
30
0
70
128
71
160
72
162
73
140
0
VERTEX
8
TABLE
10
0
20
0
30
0
70
128
71
163
72
142
73
141
0
VERTEX
8
TABLE
10
0
20
0
30
0
70
128
71
162
72
163
73
141
0
VERTEX
8
TABLE
10
0
20
0
30
0
70
128
71
164
72
143
73
142
0
VERTEX
8
TABLE
10
0
20
0
30
0
70
128
71
163
72
164
73
142
0
VERTEX
8
TABLE
10
0
20
0
30
0
70
128
71
165
72
144
73
143
0
VERTEX
8
TABLE
10
0
20
0
30
0
70
128
71
164
72
165
73
143
0
VERTEX
8
TABLE
10
0
20
0
30
0
70
128
71
166
72
145
73
144
0
VERTEX
8
TABLE
10
0
20
0
30
0
70
128
71
165
72
166
73
144
0
VERTEX
8
TABLE
10
0
20
0
30
0
70
128
71
167
72
147
73
145
0
VERTEX
8
TABLE
10
0
20
0
30
0
70
128
71
166
72
167
73
145
0
VERTEX
8
TABLE
10
0
20
0
30
0
70
128
71
168
72
149
73
147
0
VERTEX
8
TABLE
10
0
20
0
30
0
70
128
71
167
72
168
73
147
0
VERTEX
8
TABLE
10
0
20
0
30
0
70
128
71
169
72
151
73
149
0
VERTEX
8
TABLE
10
0
20
0
30
0
70
128
71
168
72
169
73
149
0
VERTEX
8
TABLE
10
0
20
0
30
0
70
128
71
170
72
159
73
151
0
VERTEX
8
TABLE
10
0
20
0
30
0
70
128
71
169
72
170
73
151
0
VERTEX
8
TABLE
10
0
20
0
30
0
70
128
71
171
72
156
73
159
0
VERTEX
8
TABLE
10
0
20
0
30
0
70
128
71
170
72
171
73
159
0
VERTEX
8
TABLE
10
0
20
0
30
0
70
128
71
172
72
152
73
156
0
VERTEX
8
TABLE
10
0
20
0
30
0
70
128
71
171
72
172
73
156
0
VERTEX
8
TABLE
10
0
20
0
30
0
70
128
71
173
72
153
73
152
0
VERTEX
8
TABLE
10
0
20
0
30
0
70
128
71
172
72
173
73
152
0
VERTEX
8
TABLE
10
0
20
0
30
0
70
128
71
174
72
154
73
153
0
VERTEX
8
TABLE
10
0
20
0
30
0
70
128
71
173
72
174
73
153
0
VERTEX
8
TABLE
10
0
20
0
30
0
70
128
71
175
72
155
73
154
0
VERTEX
8
TABLE
10
0
20
0
30
0
70
128
71
174
72
175
73
154
0
VERTEX
8
TABLE
10
0
20
0
30
0
70
128
71
176
72
157
73
155
0
VERTEX
8
TABLE
10
0
20
0
30
0
70
128
71
175
72
176
73
155
0
VERTEX
8
TABLE
10
0
20
0
30
0
70
128
71
177
72
158
73
157
0
VERTEX
8
TABLE
10
0
20
0
30
0
70
128
71
176
72
177
73
157
0
VERTEX
8
TABLE
10
0
20
0
30
0
70
128
71
178
72
150
73
158
0
VERTEX
8
TABLE
10
0
20
0
30
0
70
128
71
177
72
178
73
158
0
VERTEX
8
TABLE
10
0
20
0
30
0
70
128
71
179
72
148
73
150
0
VERTEX
8
TABLE
10
0
20
0
30
0
70
128
71
178
72
179
73
150
0
VERTEX
8
TABLE
10
0
20
0
30
0
70
128
71
180
72
146
73
148
0
VERTEX
8
TABLE
10
0
20
0
30
0
70
128
71
179
72
180
73
148
0
VERTEX
8
TABLE
10
0
20
0
30
0
70
128
71
181
72
139
73
146
0
VERTEX
8
TABLE
10
0
20
0
30
0
70
128
71
180
72
181
73
146
0
VERTEX
8
TABLE
10
0
20
0
30
0
70
128
71
182
72
138
73
139
0
VERTEX
8
TABLE
10
0
20
0
30
0
70
128
71
181
72
182
73
139
0
VERTEX
8
TABLE
10
0
20
0
30
0
70
128
71
183
72
137
73
138
0
VERTEX
8
TABLE
10
0
20
0
30
0
70
128
71
182
72
183
73
138
0
VERTEX
8
TABLE
10
0
20
0
30
0
70
128
71
184
72
136
73
137
0
VERTEX
8
TABLE
10
0
20
0
30
0
70
128
71
183
72
184
73
137
0
VERTEX
8
TABLE
10
0
20
0
30
0
70
128
71
185
72
133
73
136
0
VERTEX
8
TABLE
10
0
20
0
30
0
70
128
71
184
72
185
73
136
0
VERTEX
8
TABLE
10
0
20
0
30
0
70
128
71
186
72
134
73
133
0
VERTEX
8
TABLE
10
0
20
0
30
0
70
128
71
185
72
186
73
133
0
VERTEX
8
TABLE
10
0
20
0
30
0
70
128
71
161
72
135
73
134
0
VERTEX
8
TABLE
10
0
20
0
30
0
70
128
71
186
72
161
73
134
0
VERTEX
8
TABLE
10
0
20
0
30
0
70
128
71
161
72
186
73
185
0
VERTEX
8
TABLE
10
0
20
0
30
0
70
128
71
161
72
185
73
184
0
VERTEX
8
TABLE
10
0
20
0
30
0
70
128
71
161
72
184
73
183
0
VERTEX
8
TABLE
10
0
20
0
30
0
70
128
71
161
72
183
73
182
0
VERTEX
8
TABLE
10
0
20
0
30
0
70
128
71
161
72
182
73
181
0
VERTEX
8
TABLE
10
0
20
0
30
0
70
128
71
160
72
161
73
181
0
VERTEX
8
TABLE
10
0
20
0
30
0
70
128
71
162
72
160
73
181
0
VERTEX
8
TABLE
10
0
20
0
30
0
70
128
71
163
72
162
73
181
0
VERTEX
8
TABLE
10
0
20
0
30
0
70
128
71
164
72
163
73
181
0
VERTEX
8
TABLE
10
0
20
0
30
0
70
128
71
165
72
164
73
181
0
VERTEX
8
TABLE
10
0
20
0
30
0
70
128
71
166
72
165
73
181
0
VERTEX
8
TABLE
10
0
20
0
30
0
70
128
71
166
72
181
73
180
0
VERTEX
8
TABLE
10
0
20
0
30
0
70
128
71
167
72
166
73
180
0
VERTEX
8
TABLE
10
0
20
0
30
0
70
128
71
167
72
180
73
179
0
VERTEX
8
TABLE
10
0
20
0
30
0
70
128
71
168
72
167
73
179
0
VERTEX
8
TABLE
10
0
20
0
30
0
70
128
71
168
72
179
73
178
0
VERTEX
8
TABLE
10
0
20
0
30
0
70
128
71
169
72
168
73
178
0
VERTEX
8
TABLE
10
0
20
0
30
0
70
128
71
174
72
173
73
172
0
VERTEX
8
TABLE
10
0
20
0
30
0
70
128
71
175
72
174
73
172
0
VERTEX
8
TABLE
10
0
20
0
30
0
70
128
71
175
72
172
73
171
0
VERTEX
8
TABLE
10
0
20
0
30
0
70
128
71
176
72
175
73
171
0
VERTEX
8
TABLE
10
0
20
0
30
0
70
128
71
169
72
178
73
177
0
VERTEX
8
TABLE
10
0
20
0
30
0
70
128
71
170
72
169
73
177
0
VERTEX
8
TABLE
10
0
20
0
30
0
70
128
71
176
72
171
73
170
0
VERTEX
8
TABLE
10
0
20
0
30
0
70
128
71
176
72
170
73
177
0
VERTEX
8
TABLE
10
0
20
0
30
0
70
128
71
187
72
188
73
189
0
VERTEX
8
TABLE
10
0
20
0
30
0
70
128
71
187
72
189
73
190
0
VERTEX
8
TABLE
10
0
20
0
30
0
70
128
71
187
72
190
73
191
0
VERTEX
8
TABLE
10
0
20
0
30
0
70
128
71
187
72
191
73
192
0
VERTEX
8
TABLE
10
0
20
0
30
0
70
128
71
187
72
192
73
193
0
VERTEX
8
TABLE
10
0
20
0
30
0
70
128
71
194
72
187
73
193
0
VERTEX
8
TABLE
10
0
20
0
30
0
70
128
71
195
72
194
73
193
0
VERTEX
8
TABLE
10
0
20
0
30
0
70
128
71
196
72
195
73
193
0
VERTEX
8
TABLE
10
0
20
0
30
0
70
128
71
197
72
196
73
193
0
VERTEX
8
TABLE
10
0
20
0
30
0
70
128
71
198
72
197
73
193
0
VERTEX
8
TABLE
10
0
20
0
30
0
70
128
71
199
72
198
73
193
0
VERTEX
8
TABLE
10
0
20
0
30
0
70
128
71
199
72
193
73
200
0
VERTEX
8
TABLE
10
0
20
0
30
0
70
128
71
201
72
199
73
200
0
VERTEX
8
TABLE
10
0
20
0
30
0
70
128
71
201
72
200
73
202
0
VERTEX
8
TABLE
10
0
20
0
30
0
70
128
71
203
72
201
73
202
0
VERTEX
8
TABLE
10
0
20
0
30
0
70
128
71
203
72
202
73
204
0
VERTEX
8
TABLE
10
0
20
0
30
0
70
128
71
205
72
203
73
204
0
VERTEX
8
TABLE
10
0
20
0
30
0
70
128
71
206
72
207
73
208
0
VERTEX
8
TABLE
10
0
20
0
30
0
70
128
71
209
72
206
73
208
0
VERTEX
8
TABLE
10
0
20
0
30
0
70
128
71
209
72
208
73
210
0
VERTEX
8
TABLE
10
0
20
0
30
0
70
128
71
211
72
209
73
210
0
VERTEX
8
TABLE
10
0
20
0
30
0
70
128
71
205
72
204
73
212
0
VERTEX
8
TABLE
10
0
20
0
30
0
70
128
71
213
72
205
73
212
0
VERTEX
8
TABLE
10
0
20
0
30
0
70
128
71
211
72
210
73
213
0
VERTEX
8
TABLE
10
0
20
0
30
0
70
128
71
211
72
213
73
212
0
VERTEX
8
TABLE
10
0
20
0
30
0
70
128
71
187
72
194
73
214
0
VERTEX
8
TABLE
10
0
20
0
30
0
70
128
71
187
72
214
73
215
0
VERTEX
8
TABLE
10
0
20
0
30
0
70
128
71
194
72
195
73
216
0
VERTEX
8
TABLE
10
0
20
0
30
0
70
128
71
194
72
216
73
214
0
VERTEX
8
TABLE
10
0
20
0
30
0
70
128
71
195
72
196
73
217
0
VERTEX
8
TABLE
10
0
20
0
30
0
70
128
71
195
72
217
73
216
0
VERTEX
8
TABLE
10
0
20
0
30
0
70
128
71
196
72
197
73
218
0
VERTEX
8
TABLE
10
0
20
0
30
0
70
128
71
196
72
218
73
217
0
VERTEX
8
TABLE
10
0
20
0
30
0
70
128
71
197
72
198
73
219
0
VERTEX
8
TABLE
10
0
20
0
30
0
70
128
71
197
72
219
73
218
0
VERTEX
8
TABLE
10
0
20
0
30
0
70
128
71
198
72
199
73
220
0
VERTEX
8
TABLE
10
0
20
0
30
0
70
128
71
198
72
220
73
219
0
VERTEX
8
TABLE
10
0
20
0
30
0
70
128
71
199
72
201
73
221
0
VERTEX
8
TABLE
10
0
20
0
30
0
70
128
71
199
72
221
73
220
0
VERTEX
8
TABLE
10
0
20
0
30
0
70
128
71
201
72
203
73
222
0
VERTEX
8
TABLE
10
0
20
0
30
0
70
128
71
201
72
222
73
221
0
VERTEX
8
TABLE
10
0
20
0
30
0
70
128
71
203
72
205
73
223
0
VERTEX
8
TABLE
10
0
20
0
30
0
70
128
71
203
72
223
73
222
0
VERTEX
8
TABLE
10
0
20
0
30
0
70
128
71
205
72
213
73
224
0
VERTEX
8
TABLE
10
0
20
0
30
0
70
128
71
205
72
224
73
223
0
VERTEX
8
TABLE
10
0
20
0
30
0
70
128
71
213
72
210
73
225
0
VERTEX
8
TABLE
10
0
20
0
30
0
70
128
71
213
72
225
73
224
0
VERTEX
8
TABLE
10
0
20
0
30
0
70
128
71
210
72
208
73
226
0
VERTEX
8
TABLE
10
0
20
0
30
0
70
128
71
210
72
226
73
225
0
VERTEX
8
TABLE
10
0
20
0
30
0
70
128
71
208
72
207
73
227
0
VERTEX
8
TABLE
10
0
20
0
30
0
70
128
71
208
72
227
73
226
0
VERTEX
8
TABLE
10
0
20
0
30
0
70
128
71
207
72
206
73
228
0
VERTEX
8
TABLE
10
0
20
0
30
0
70
128
71
207
72
228
73
227
0
VERTEX
8
TABLE
10
0
20
0
30
0
70
128
71
206
72
209
73
229
0
VERTEX
8
TABLE
10
0
20
0
30
0
70
128
71
206
72
229
73
228
0
VERTEX
8
TABLE
10
0
20
0
30
0
70
128
71
209
72
211
73
230
0
VERTEX
8
TABLE
10
0
20
0
30
0
70
128
71
209
72
230
73
229
0
VERTEX
8
TABLE
10
0
20
0
30
0
70
128
71
211
72
212
73
231
0
VERTEX
8
TABLE
10
0
20
0
30
0
70
128
71
211
72
231
73
230
0
VERTEX
8
TABLE
10
0
20
0
30
0
70
128
71
212
72
204
73
232
0
VERTEX
8
TABLE
10
0
20
0
30
0
70
128
71
212
72
232
73
231
0
VERTEX
8
TABLE
10
0
20
0
30
0
70
128
71
204
72
202
73
233
0
VERTEX
8
TABLE
10
0
20
0
30
0
70
128
71
204
72
233
73
232
0
VERTEX
8
TABLE
10
0
20
0
30
0
70
128
71
202
72
200
73
234
0
VERTEX
8
TABLE
10
0
20
0
30
0
70
128
71
202
72
234
73
233
0
VERTEX
8
TABLE
10
0
20
0
30
0
70
128
71
200
72
193
73
235
0
VERTEX
8
TABLE
10
0
20
0
30
0
70
128
71
200
72
235
73
234
0
VERTEX
8
TABLE
10
0
20
0
30
0
70
128
71
193
72
192
73
236
0
VERTEX
8
TABLE
10
0
20
0
30
0
70
128
71
193
72
236
73
235
0
VERTEX
8
TABLE
10
0
20
0
30
0
70
128
71
192
72
191
73
237
0
VERTEX
8
TABLE
10
0
20
0
30
0
70
128
71
192
72
237
73
236
0
VERTEX
8
TABLE
10
0
20
0
30
0
70
128
71
191
72
190
73
238
0
VERTEX
8
TABLE
10
0
20
0
30
0
70
128
71
191
72
238
73
237
0
VERTEX
8
TABLE
10
0
20
0
30
0
70
128
71
190
72
189
73
239
0
VERTEX
8
TABLE
10
0
20
0
30
0
70
128
71
190
72
239
73
238
0
VERTEX
8
TABLE
10
0
20
0
30
0
70
128
71
189
72
188
73
240
0
VERTEX
8
TABLE
10
0
20
0
30
0
70
128
71
189
72
240
73
239
0
VERTEX
8
TABLE
10
0
20
0
30
0
70
128
71
188
72
187
73
215
0
VERTEX
8
TABLE
10
0
20
0
30
0
70
128
71
188
72
215
73
240
0
VERTEX
8
TABLE
10
0
20
0
30
0
70
128
71
239
72
240
73
215
0
VERTEX
8
TABLE
10
0
20
0
30
0
70
128
71
238
72
239
73
215
0
VERTEX
8
TABLE
10
0
20
0
30
0
70
128
71
237
72
238
73
215
0
VERTEX
8
TABLE
10
0
20
0
30
0
70
128
71
236
72
237
73
215
0
VERTEX
8
TABLE
10
0
20
0
30
0
70
128
71
235
72
236
73
215
0
VERTEX
8
TABLE
10
0
20
0
30
0
70
128
71
235
72
215
73
214
0
VERTEX
8
TABLE
10
0
20
0
30
0
70
128
71
235
72
214
73
216
0
VERTEX
8
TABLE
10
0
20
0
30
0
70
128
71
235
72
216
73
217
0
VERTEX
8
TABLE
10
0
20
0
30
0
70
128
71
235
72
217
73
218
0
VERTEX
8
TABLE
10
0
20
0
30
0
70
128
71
235
72
218
73
219
0
VERTEX
8
TABLE
10
0
20
0
30
0
70
128
71
235
72
219
73
220
0
VERTEX
8
TABLE
10
0
20
0
30
0
70
128
71
234
72
235
73
220
0
VERTEX
8
TABLE
10
0
20
0
30
0
70
128
71
234
72
220
73
221
0
VERTEX
8
TABLE
10
0
20
0
30
0
70
128
71
233
72
234
73
221
0
VERTEX
8
TABLE
10
0
20
0
30
0
70
128
71
233
72
221
73
222
0
VERTEX
8
TABLE
10
0
20
0
30
0
70
128
71
232
72
233
73
222
0
VERTEX
8
TABLE
10
0
20
0
30
0
70
128
71
232
72
222
73
223
0
VERTEX
8
TABLE
10
0
20
0
30
0
70
128
71
226
72
227
73
228
0
VERTEX
8
TABLE
10
0
20
0
30
0
70
128
71
226
72
228
73
229
0
VERTEX
8
TABLE
10
0
20
0
30
0
70
128
71
225
72
226
73
229
0
VERTEX
8
TABLE
10
0
20
0
30
0
70
128
71
225
72
229
73
230
0
VERTEX
8
TABLE
10
0
20
0
30
0
70
128
71
231
72
232
73
223
0
VERTEX
8
TABLE
10
0
20
0
30
0
70
128
71
231
72
223
73
224
0
VERTEX
8
TABLE
10
0
20
0
30
0
70
128
71
224
72
225
73
230
0
VERTEX
8
TABLE
10
0
20
0
30
0
70
128
71
231
72
224
73
230
0
VERTEX
8
TABLE
10
0
20
0
30
0
70
128
71
241
72
242
73
243
0
VERTEX
8
TABLE
10
0
20
0
30
0
70
128
71
241
72
243
73
244
0
VERTEX
8
TABLE
10
0
20
0
30
0
70
128
71
245
72
241
73
244
0
VERTEX
8
TABLE
10
0
20
0
30
0
70
128
71
246
72
245
73
244
0
VERTEX
8
TABLE
10
0
20
0
30
0
70
128
71
247
72
242
73
241
0
VERTEX
8
TABLE
10
0
20
0
30
0
70
128
71
245
72
247
73
241
0
VERTEX
8
TABLE
10
0
20
0
30
0
70
128
71
248
72
243
73
242
0
VERTEX
8
TABLE
10
0
20
0
30
0
70
128
71
247
72
248
73
242
0
VERTEX
8
TABLE
10
0
20
0
30
0
70
128
71
246
72
244
73
243
0
VERTEX
8
TABLE
10
0
20
0
30
0
70
128
71
248
72
246
73
243
0
VERTEX
8
TABLE
10
0
20
0
30
0
70
128
71
249
72
245
73
246
0
VERTEX
8
TABLE
10
0
20
0
30
0
70
128
71
250
72
249
73
246
0
VERTEX
8
TABLE
10
0
20
0
30
0
70
128
71
251
72
247
73
245
0
VERTEX
8
TABLE
10
0
20
0
30
0
70
128
71
249
72
251
73
245
0
VERTEX
8
TABLE
10
0
20
0
30
0
70
128
71
252
72
248
73
247
0
VERTEX
8
TABLE
10
0
20
0
30
0
70
128
71
251
72
252
73
247
0
VERTEX
8
TABLE
10
0
20
0
30
0
70
128
71
250
72
246
73
248
0
VERTEX
8
TABLE
10
0
20
0
30
0
70
128
71
252
72
250
73
248
0
VERTEX
8
TABLE
10
0
20
0
30
0
70
128
71
253
72
249
73
250
0
VERTEX
8
TABLE
10
0
20
0
30
0
70
128
71
254
72
253
73
250
0
VERTEX
8
TABLE
10
0
20
0
30
0
70
128
71
255
72
251
73
249
0
VERTEX
8
TABLE
10
0
20
0
30
0
70
128
71
253
72
255
73
249
0
VERTEX
8
TABLE
10
0
20
0
30
0
70
128
71
256
72
252
73
251
0
VERTEX
8
TABLE
10
0
20
0
30
0
70
128
71
255
72
256
73
251
0
VERTEX
8
TABLE
10
0
20
0
30
0
70
128
71
254
72
250
73
252
0
VERTEX
8
TABLE
10
0
20
0
30
0
70
128
71
256
72
254
73
252
0
VERTEX
8
TABLE
10
0
20
0
30
0
70
128
71
256
72
255
73
253
0
VERTEX
8
TABLE
10
0
20
0
30
0
70
128
71
254
72
256
73
253
0
VERTEX
8
TABLE
10
0
20
0
30
0
70
128
71
257
72
258
73
259
0
VERTEX
8
TABLE
10
0
20
0
30
0
70
128
71
260
72
257
73
259
0
VERTEX
8
TABLE
10
0
20
0
30
0
70
128
71
260
72
259
73
261
0
VERTEX
8
TABLE
10
0
20
0
30
0
70
128
71
260
72
261
73
262
0
VERTEX
8
TABLE
10
0
20
0
30
0
70
128
71
259
72
258
73
263
0
VERTEX
8
TABLE
10
0
20
0
30
0
70
128
71
259
72
263
73
261
0
VERTEX
8
TABLE
10
0
20
0
30
0
70
128
71
258
72
257
73
264
0
VERTEX
8
TABLE
10
0
20
0
30
0
70
128
71
258
72
264
73
263
0
VERTEX
8
TABLE
10
0
20
0
30
0
70
128
71
257
72
260
73
262
0
VERTEX
8
TABLE
10
0
20
0
30
0
70
128
71
257
72
262
73
264
0
VERTEX
8
TABLE
10
0
20
0
30
0
70
128
71
262
72
261
73
265
0
VERTEX
8
TABLE
10
0
20
0
30
0
70
128
71
262
72
265
73
266
0
VERTEX
8
TABLE
10
0
20
0
30
0
70
128
71
261
72
263
73
267
0
VERTEX
8
TABLE
10
0
20
0
30
0
70
128
71
261
72
267
73
265
0
VERTEX
8
TABLE
10
0
20
0
30
0
70
128
71
263
72
264
73
268
0
VERTEX
8
TABLE
10
0
20
0
30
0
70
128
71
263
72
268
73
267
0
VERTEX
8
TABLE
10
0
20
0
30
0
70
128
71
264
72
262
73
266
0
VERTEX
8
TABLE
10
0
20
0
30
0
70
128
71
264
72
266
73
268
0
VERTEX
8
TABLE
10
0
20
0
30
0
70
128
71
266
72
265
73
269
0
VERTEX
8
TABLE
10
0
20
0
30
0
70
128
71
266
72
269
73
270
0
VERTEX
8
TABLE
10
0
20
0
30
0
70
128
71
265
72
267
73
271
0
VERTEX
8
TABLE
10
0
20
0
30
0
70
128
71
265
72
271
73
269
0
VERTEX
8
TABLE
10
0
20
0
30
0
70
128
71
267
72
268
73
272
0
VERTEX
8
TABLE
10
0
20
0
30
0
70
128
71
267
72
272
73
271
0
VERTEX
8
TABLE
10
0
20
0
30
0
70
128
71
268
72
266
73
270
0
VERTEX
8
TABLE
10
0
20
0
30
0
70
128
71
268
72
270
73
272
0
VERTEX
8
TABLE
10
0
20
0
30
0
70
128
71
269
72
271
73
272
0
VERTEX
8
TABLE
10
0
20
0
30
0
70
128
71
269
72
272
73
270
0
VERTEX
8
TABLE
10
0
20
0
30
0
70
128
71
273
72
274
73
275
0
VERTEX
8
TABLE
10
0
20
0
30
0
70
128
71
276
72
273
73
275
0
VERTEX
8
TABLE
10
0
20
0
30
0
70
128
71
277
72
278
73
279
0
VERTEX
8
TABLE
10
0
20
0
30
0
70
128
71
277
72
279
73
280
0
VERTEX
8
TABLE
10
0
20
0
30
0
70
128
71
281
72
276
73
275
0
VERTEX
8
TABLE
10
0
20
0
30
0
70
128
71
277
72
280
73
282
0
VERTEX
8
TABLE
10
0
20
0
30
0
70
128
71
277
72
282
73
283
0
VERTEX
8
TABLE
10
0
20
0
30
0
70
128
71
284
72
281
73
275
0
VERTEX
8
TABLE
10
0
20
0
30
0
70
128
71
285
72
284
73
275
0
VERTEX
8
TABLE
10
0
20
0
30
0
70
128
71
277
72
283
73
286
0
VERTEX
8
TABLE
10
0
20
0
30
0
70
128
71
287
72
285
73
275
0
VERTEX
8
TABLE
10
0
20
0
30
0
70
128
71
277
72
286
73
287
0
VERTEX
8
TABLE
10
0
20
0
30
0
70
128
71
277
72
287
73
275
0
VERTEX
8
TABLE
10
0
20
0
30
0
70
128
71
288
72
278
73
277
0
VERTEX
8
TABLE
10
0
20
0
30
0
70
128
71
289
72
288
73
277
0
VERTEX
8
TABLE
10
0
20
0
30
0
70
128
71
290
72
279
73
278
0
VERTEX
8
TABLE
10
0
20
0
30
0
70
128
71
288
72
290
73
278
0
VERTEX
8
TABLE
10
0
20
0
30
0
70
128
71
291
72
280
73
279
0
VERTEX
8
TABLE
10
0
20
0
30
0
70
128
71
290
72
291
73
279
0
VERTEX
8
TABLE
10
0
20
0
30
0
70
128
71
292
72
282
73
280
0
VERTEX
8
TABLE
10
0
20
0
30
0
70
128
71
291
72
292
73
280
0
VERTEX
8
TABLE
10
0
20
0
30
0
70
128
71
293
72
283
73
282
0
VERTEX
8
TABLE
10
0
20
0
30
0
70
128
71
292
72
293
73
282
0
VERTEX
8
TABLE
10
0
20
0
30
0
70
128
71
294
72
286
73
283
0
VERTEX
8
TABLE
10
0
20
0
30
0
70
128
71
293
72
294
73
283
0
VERTEX
8
TABLE
10
0
20
0
30
0
70
128
71
295
72
287
73
286
0
VERTEX
8
TABLE
10
0
20
0
30
0
70
128
71
294
72
295
73
286
0
VERTEX
8
TABLE
10
0
20
0
30
0
70
128
71
296
72
285
73
287
0
VERTEX
8
TABLE
10
0
20
0
30
0
70
128
71
295
72
296
73
287
0
VERTEX
8
TABLE
10
0
20
0
30
0
70
128
71
297
72
284
73
285
0
VERTEX
8
TABLE
10
0
20
0
30
0
70
128
71
296
72
297
73
285
0
VERTEX
8
TABLE
10
0
20
0
30
0
70
128
71
298
72
281
73
284
0
VERTEX
8
TABLE
10
0
20
0
30
0
70
128
71
297
72
298
73
284
0
VERTEX
8
TABLE
10
0
20
0
30
0
70
128
71
299
72
276
73
281
0
VERTEX
8
TABLE
10
0
20
0
30
0
70
128
71
298
72
299
73
281
0
VERTEX
8
TABLE
10
0
20
0
30
0
70
128
71
300
72
273
73
276
0
VERTEX
8
TABLE
10
0
20
0
30
0
70
128
71
299
72
300
73
276
0
VERTEX
8
TABLE
10
0
20
0
30
0
70
128
71
301
72
274
73
273
0
VERTEX
8
TABLE
10
0
20
0
30
0
70
128
71
300
72
301
73
273
0
VERTEX
8
TABLE
10
0
20
0
30
0
70
128
71
302
72
275
73
274
0
VERTEX
8
TABLE
10
0
20
0
30
0
70
128
71
301
72
302
73
274
0
VERTEX
8
TABLE
10
0
20
0
30
0
70
128
71
289
72
277
73
275
0
VERTEX
8
TABLE
10
0
20
0
30
0
70
128
71
302
72
289
73
275
0
VERTEX
8
TABLE
10
0
20
0
30
0
70
128
71
303
72
288
73
289
0
VERTEX
8
TABLE
10
0
20
0
30
0
70
128
71
304
72
303
73
289
0
VERTEX
8
TABLE
10
0
20
0
30
0
70
128
71
305
72
290
73
288
0
VERTEX
8
TABLE
10
0
20
0
30
0
70
128
71
303
72
305
73
288
0
VERTEX
8
TABLE
10
0
20
0
30
0
70
128
71
306
72
291
73
290
0
VERTEX
8
TABLE
10
0
20
0
30
0
70
128
71
305
72
306
73
290
0
VERTEX
8
TABLE
10
0
20
0
30
0
70
128
71
307
72
292
73
291
0
VERTEX
8
TABLE
10
0
20
0
30
0
70
128
71
306
72
307
73
291
0
VERTEX
8
TABLE
10
0
20
0
30
0
70
128
71
308
72
293
73
292
0
VERTEX
8
TABLE
10
0
20
0
30
0
70
128
71
307
72
308
73
292
0
VERTEX
8
TABLE
10
0
20
0
30
0
70
128
71
309
72
294
73
293
0
VERTEX
8
TABLE
10
0
20
0
30
0
70
128
71
308
72
309
73
293
0
VERTEX
8
TABLE
10
0
20
0
30
0
70
128
71
310
72
295
73
294
0
VERTEX
8
TABLE
10
0
20
0
30
0
70
128
71
309
72
310
73
294
0
VERTEX
8
TABLE
10
0
20
0
30
0
70
128
71
311
72
296
73
295
0
VERTEX
8
TABLE
10
0
20
0
30
0
70
128
71
310
72
311
73
295
0
VERTEX
8
TABLE
10
0
20
0
30
0
70
128
71
312
72
297
73
296
0
VERTEX
8
TABLE
10
0
20
0
30
0
70
128
71
311
72
312
73
296
0
VERTEX
8
TABLE
10
0
20
0
30
0
70
128
71
313
72
298
73
297
0
VERTEX
8
TABLE
10
0
20
0
30
0
70
128
71
312
72
313
73
297
0
VERTEX
8
TABLE
10
0
20
0
30
0
70
128
71
314
72
299
73
298
0
VERTEX
8
TABLE
10
0
20
0
30
0
70
128
71
313
72
314
73
298
0
VERTEX
8
TABLE
10
0
20
0
30
0
70
128
71
315
72
300
73
299
0
VERTEX
8
TABLE
10
0
20
0
30
0
70
128
71
314
72
315
73
299
0
VERTEX
8
TABLE
10
0
20
0
30
0
70
128
71
316
72
301
73
300
0
VERTEX
8
TABLE
10
0
20
0
30
0
70
128
71
315
72
316
73
300
0
VERTEX
8
TABLE
10
0
20
0
30
0
70
128
71
317
72
302
73
301
0
VERTEX
8
TABLE
10
0
20
0
30
0
70
128
71
316
72
317
73
301
0
VERTEX
8
TABLE
10
0
20
0
30
0
70
128
71
304
72
289
73
302
0
VERTEX
8
TABLE
10
0
20
0
30
0
70
128
71
317
72
304
73
302
0
VERTEX
8
TABLE
10
0
20
0
30
0
70
128
71
318
72
303
73
304
0
VERTEX
8
TABLE
10
0
20
0
30
0
70
128
71
319
72
318
73
304
0
VERTEX
8
TABLE
10
0
20
0
30
0
70
128
71
320
72
305
73
303
0
VERTEX
8
TABLE
10
0
20
0
30
0
70
128
71
318
72
320
73
303
0
VERTEX
8
TABLE
10
0
20
0
30
0
70
128
71
321
72
306
73
305
0
VERTEX
8
TABLE
10
0
20
0
30
0
70
128
71
320
72
321
73
305
0
VERTEX
8
TABLE
10
0
20
0
30
0
70
128
71
322
72
307
73
306
0
VERTEX
8
TABLE
10
0
20
0
30
0
70
128
71
321
72
322
73
306
0
VERTEX
8
TABLE
10
0
20
0
30
0
70
128
71
323
72
308
73
307
0
VERTEX
8
TABLE
10
0
20
0
30
0
70
128
71
322
72
323
73
307
0
VERTEX
8
TABLE
10
0
20
0
30
0
70
128
71
324
72
309
73
308
0
VERTEX
8
TABLE
10
0
20
0
30
0
70
128
71
323
72
324
73
308
0
VERTEX
8
TABLE
10
0
20
0
30
0
70
128
71
325
72
310
73
309
0
VERTEX
8
TABLE
10
0
20
0
30
0
70
128
71
324
72
325
73
309
0
VERTEX
8
TABLE
10
0
20
0
30
0
70
128
71
326
72
311
73
310
0
VERTEX
8
TABLE
10
0
20
0
30
0
70
128
71
325
72
326
73
310
0
VERTEX
8
TABLE
10
0
20
0
30
0
70
128
71
327
72
312
73
311
0
VERTEX
8
TABLE
10
0
20
0
30
0
70
128
71
326
72
327
73
311
0
VERTEX
8
TABLE
10
0
20
0
30
0
70
128
71
328
72
313
73
312
0
VERTEX
8
TABLE
10
0
20
0
30
0
70
128
71
327
72
328
73
312
0
VERTEX
8
TABLE
10
0
20
0
30
0
70
128
71
329
72
314
73
313
0
VERTEX
8
TABLE
10
0
20
0
30
0
70
128
71
328
72
329
73
313
0
VERTEX
8
TABLE
10
0
20
0
30
0
70
128
71
330
72
315
73
314
0
VERTEX
8
TABLE
10
0
20
0
30
0
70
128
71
329
72
330
73
314
0
VERTEX
8
TABLE
10
0
20
0
30
0
70
128
71
331
72
316
73
315
0
VERTEX
8
TABLE
10
0
20
0
30
0
70
128
71
330
72
331
73
315
0
VERTEX
8
TABLE
10
0
20
0
30
0
70
128
71
332
72
317
73
316
0
VERTEX
8
TABLE
10
0
20
0
30
0
70
128
71
331
72
332
73
316
0
VERTEX
8
TABLE
10
0
20
0
30
0
70
128
71
319
72
304
73
317
0
VERTEX
8
TABLE
10
0
20
0
30
0
70
128
71
332
72
319
73
317
0
VERTEX
8
TABLE
10
0
20
0
30
0
70
128
71
332
72
331
73
330
0
VERTEX
8
TABLE
10
0
20
0
30
0
70
128
71
332
72
330
73
329
0
VERTEX
8
TABLE
10
0
20
0
30
0
70
128
71
320
72
318
73
319
0
VERTEX
8
TABLE
10
0
20
0
30
0
70
128
71
321
72
320
73
319
0
VERTEX
8
TABLE
10
0
20
0
30
0
70
128
71
332
72
329
73
328
0
VERTEX
8
TABLE
10
0
20
0
30
0
70
128
71
322
72
321
73
319
0
VERTEX
8
TABLE
10
0
20
0
30
0
70
128
71
323
72
322
73
319
0
VERTEX
8
TABLE
10
0
20
0
30
0
70
128
71
332
72
328
73
327
0
VERTEX
8
TABLE
10
0
20
0
30
0
70
128
71
332
72
327
73
326
0
VERTEX
8
TABLE
10
0
20
0
30
0
70
128
71
324
72
323
73
319
0
VERTEX
8
TABLE
10
0
20
0
30
0
70
128
71
332
72
326
73
325
0
VERTEX
8
TABLE
10
0
20
0
30
0
70
128
71
325
72
324
73
319
0
VERTEX
8
TABLE
10
0
20
0
30
0
70
128
71
332
72
325
73
319
0
VERTEX
8
TABLE
10
0
20
0
30
0
70
128
71
333
72
334
73
335
0
VERTEX
8
TABLE
10
0
20
0
30
0
70
128
71
333
72
335
73
336
0
VERTEX
8
TABLE
10
0
20
0
30
0
70
128
71
337
72
338
73
339
0
VERTEX
8
TABLE
10
0
20
0
30
0
70
128
71
340
72
337
73
339
0
VERTEX
8
TABLE
10
0
20
0
30
0
70
128
71
333
72
336
73
341
0
VERTEX
8
TABLE
10
0
20
0
30
0
70
128
71
342
72
340
73
339
0
VERTEX
8
TABLE
10
0
20
0
30
0
70
128
71
343
72
342
73
339
0
VERTEX
8
TABLE
10
0
20
0
30
0
70
128
71
333
72
341
73
344
0
VERTEX
8
TABLE
10
0
20
0
30
0
70
128
71
333
72
344
73
345
0
VERTEX
8
TABLE
10
0
20
0
30
0
70
128
71
346
72
343
73
339
0
VERTEX
8
TABLE
10
0
20
0
30
0
70
128
71
333
72
345
73
347
0
VERTEX
8
TABLE
10
0
20
0
30
0
70
128
71
347
72
346
73
339
0
VERTEX
8
TABLE
10
0
20
0
30
0
70
128
71
333
72
347
73
339
0
VERTEX
8
TABLE
10
0
20
0
30
0
70
128
71
339
72
338
73
348
0
VERTEX
8
TABLE
10
0
20
0
30
0
70
128
71
339
72
348
73
349
0
VERTEX
8
TABLE
10
0
20
0
30
0
70
128
71
338
72
337
73
350
0
VERTEX
8
TABLE
10
0
20
0
30
0
70
128
71
338
72
350
73
348
0
VERTEX
8
TABLE
10
0
20
0
30
0
70
128
71
337
72
340
73
351
0
VERTEX
8
TABLE
10
0
20
0
30
0
70
128
71
337
72
351
73
350
0
VERTEX
8
TABLE
10
0
20
0
30
0
70
128
71
340
72
342
73
352
0
VERTEX
8
TABLE
10
0
20
0
30
0
70
128
71
340
72
352
73
351
0
VERTEX
8
TABLE
10
0
20
0
30
0
70
128
71
342
72
343
73
353
0
VERTEX
8
TABLE
10
0
20
0
30
0
70
128
71
342
72
353
73
352
0
VERTEX
8
TABLE
10
0
20
0
30
0
70
128
71
343
72
346
73
354
0
VERTEX
8
TABLE
10
0
20
0
30
0
70
128
71
343
72
354
73
353
0
VERTEX
8
TABLE
10
0
20
0
30
0
70
128
71
346
72
347
73
355
0
VERTEX
8
TABLE
10
0
20
0
30
0
70
128
71
346
72
355
73
354
0
VERTEX
8
TABLE
10
0
20
0
30
0
70
128
71
347
72
345
73
356
0
VERTEX
8
TABLE
10
0
20
0
30
0
70
128
71
347
72
356
73
355
0
VERTEX
8
TABLE
10
0
20
0
30
0
70
128
71
345
72
344
73
357
0
VERTEX
8
TABLE
10
0
20
0
30
0
70
128
71
345
72
357
73
356
0
VERTEX
8
TABLE
10
0
20
0
30
0
70
128
71
344
72
341
73
358
0
VERTEX
8
TABLE
10
0
20
0
30
0
70
128
71
344
72
358
73
357
0
VERTEX
8
TABLE
10
0
20
0
30
0
70
128
71
341
72
336
73
359
0
VERTEX
8
TABLE
10
0
20
0
30
0
70
128
71
341
72
359
73
358
0
VERTEX
8
TABLE
10
0
20
0
30
0
70
128
71
336
72
335
73
360
0
VERTEX
8
TABLE
10
0
20
0
30
0
70
128
71
336
72
360
73
359
0
VERTEX
8
TABLE
10
0
20
0
30
0
70
128
71
335
72
334
73
361
0
VERTEX
8
TABLE
10
0
20
0
30
0
70
128
71
335
72
361
73
360
0
VERTEX
8
TABLE
10
0
20
0
30
0
70
128
71
334
72
333
73
362
0
VERTEX
8
TABLE
10
0
20
0
30
0
70
128
71
334
72
362
73
361
0
VERTEX
8
TABLE
10
0
20
0
30
0
70
128
71
333
72
339
73
349
0
VERTEX
8
TABLE
10
0
20
0
30
0
70
128
71
333
72
349
73
362
0
VERTEX
8
TABLE
10
0
20
0
30
0
70
128
71
349
72
348
73
363
0
VERTEX
8
TABLE
10
0
20
0
30
0
70
128
71
349
72
363
73
364
0
VERTEX
8
TABLE
10
0
20
0
30
0
70
128
71
348
72
350
73
365
0
VERTEX
8
TABLE
10
0
20
0
30
0
70
128
71
348
72
365
73
363
0
VERTEX
8
TABLE
10
0
20
0
30
0
70
128
71
350
72
351
73
366
0
VERTEX
8
TABLE
10
0
20
0
30
0
70
128
71
350
72
366
73
365
0
VERTEX
8
TABLE
10
0
20
0
30
0
70
128
71
351
72
352
73
367
0
VERTEX
8
TABLE
10
0
20
0
30
0
70
128
71
351
72
367
73
366
0
VERTEX
8
TABLE
10
0
20
0
30
0
70
128
71
352
72
353
73
368
0
VERTEX
8
TABLE
10
0
20
0
30
0
70
128
71
352
72
368
73
367
0
VERTEX
8
TABLE
10
0
20
0
30
0
70
128
71
353
72
354
73
369
0
VERTEX
8
TABLE
10
0
20
0
30
0
70
128
71
353
72
369
73
368
0
VERTEX
8
TABLE
10
0
20
0
30
0
70
128
71
354
72
355
73
370
0
VERTEX
8
TABLE
10
0
20
0
30
0
70
128
71
354
72
370
73
369
0
VERTEX
8
TABLE
10
0
20
0
30
0
70
128
71
355
72
356
73
371
0
VERTEX
8
TABLE
10
0
20
0
30
0
70
128
71
355
72
371
73
370
0
VERTEX
8
TABLE
10
0
20
0
30
0
70
128
71
356
72
357
73
372
0
VERTEX
8
TABLE
10
0
20
0
30
0
70
128
71
356
72
372
73
371
0
VERTEX
8
TABLE
10
0
20
0
30
0
70
128
71
357
72
358
73
373
0
VERTEX
8
TABLE
10
0
20
0
30
0
70
128
71
357
72
373
73
372
0
VERTEX
8
TABLE
10
0
20
0
30
0
70
128
71
358
72
359
73
374
0
VERTEX
8
TABLE
10
0
20
0
30
0
70
128
71
358
72
374
73
373
0
VERTEX
8
TABLE
10
0
20
0
30
0
70
128
71
359
72
360
73
375
0
VERTEX
8
TABLE
10
0
20
0
30
0
70
128
71
359
72
375
73
374
0
VERTEX
8
TABLE
10
0
20
0
30
0
70
128
71
360
72
361
73
376
0
VERTEX
8
TABLE
10
0
20
0
30
0
70
128
71
360
72
376
73
375
0
VERTEX
8
TABLE
10
0
20
0
30
0
70
128
71
361
72
362
73
377
0
VERTEX
8
TABLE
10
0
20
0
30
0
70
128
71
361
72
377
73
376
0
VERTEX
8
TABLE
10
0
20
0
30
0
70
128
71
362
72
349
73
364
0
VERTEX
8
TABLE
10
0
20
0
30
0
70
128
71
362
72
364
73
377
0
VERTEX
8
TABLE
10
0
20
0
30
0
70
128
71
364
72
363
73
378
0
VERTEX
8
TABLE
10
0
20
0
30
0
70
128
71
364
72
378
73
379
0
VERTEX
8
TABLE
10
0
20
0
30
0
70
128
71
363
72
365
73
380
0
VERTEX
8
TABLE
10
0
20
0
30
0
70
128
71
363
72
380
73
378
0
VERTEX
8
TABLE
10
0
20
0
30
0
70
128
71
365
72
366
73
381
0
VERTEX
8
TABLE
10
0
20
0
30
0
70
128
71
365
72
381
73
380
0
VERTEX
8
TABLE
10
0
20
0
30
0
70
128
71
366
72
367
73
382
0
VERTEX
8
TABLE
10
0
20
0
30
0
70
128
71
366
72
382
73
381
0
VERTEX
8
TABLE
10
0
20
0
30
0
70
128
71
367
72
368
73
383
0
VERTEX
8
TABLE
10
0
20
0
30
0
70
128
71
367
72
383
73
382
0
VERTEX
8
TABLE
10
0
20
0
30
0
70
128
71
368
72
369
73
384
0
VERTEX
8
TABLE
10
0
20
0
30
0
70
128
71
368
72
384
73
383
0
VERTEX
8
TABLE
10
0
20
0
30
0
70
128
71
369
72
370
73
385
0
VERTEX
8
TABLE
10
0
20
0
30
0
70
128
71
369
72
385
73
384
0
VERTEX
8
TABLE
10
0
20
0
30
0
70
128
71
370
72
371
73
386
0
VERTEX
8
TABLE
10
0
20
0
30
0
70
128
71
370
72
386
73
385
0
VERTEX
8
TABLE
10
0
20
0
30
0
70
128
71
371
72
372
73
387
0
VERTEX
8
TABLE
10
0
20
0
30
0
70
128
71
371
72
387
73
386
0
VERTEX
8
TABLE
10
0
20
0
30
0
70
128
71
372
72
373
73
388
0
VERTEX
8
TABLE
10
0
20
0
30
0
70
128
71
372
72
388
73
387
0
VERTEX
8
TABLE
10
0
20
0
30
0
70
128
71
373
72
374
73
389
0
VERTEX
8
TABLE
10
0
20
0
30
0
70
128
71
373
72
389
73
388
0
VERTEX
8
TABLE
10
0
20
0
30
0
70
128
71
374
72
375
73
390
0
VERTEX
8
TABLE
10
0
20
0
30
0
70
128
71
374
72
390
73
389
0
VERTEX
8
TABLE
10
0
20
0
30
0
70
128
71
375
72
376
73
391
0
VERTEX
8
TABLE
10
0
20
0
30
0
70
128
71
375
72
391
73
390
0
VERTEX
8
TABLE
10
0
20
0
30
0
70
128
71
376
72
377
73
392
0
VERTEX
8
TABLE
10
0
20
0
30
0
70
128
71
376
72
392
73
391
0
VERTEX
8
TABLE
10
0
20
0
30
0
70
128
71
377
72
364
73
379
0
VERTEX
8
TABLE
10
0
20
0
30
0
70
128
71
377
72
379
73
392
0
VERTEX
8
TABLE
10
0
20
0
30
0
70
128
71
390
72
391
73
392
0
VERTEX
8
TABLE
10
0
20
0
30
0
70
128
71
389
72
390
73
392
0
VERTEX
8
TABLE
10
0
20
0
30
0
70
128
71
379
72
378
73
380
0
VERTEX
8
TABLE
10
0
20
0
30
0
70
128
71
379
72
380
73
381
0
VERTEX
8
TABLE
10
0
20
0
30
0
70
128
71
388
72
389
73
392
0
VERTEX
8
TABLE
10
0
20
0
30
0
70
128
71
379
72
381
73
382
0
VERTEX
8
TABLE
10
0
20
0
30
0
70
128
71
379
72
382
73
383
0
VERTEX
8
TABLE
10
0
20
0
30
0
70
128
71
387
72
388
73
392
0
VERTEX
8
TABLE
10
0
20
0
30
0
70
128
71
386
72
387
73
392
0
VERTEX
8
TABLE
10
0
20
0
30
0
70
128
71
379
72
383
73
384
0
VERTEX
8
TABLE
10
0
20
0
30
0
70
128
71
385
72
386
73
392
0
VERTEX
8
TABLE
10
0
20
0
30
0
70
128
71
379
72
384
73
385
0
VERTEX
8
TABLE
10
0
20
0
30
0
70
128
71
379
72
385
73
392
0
SEQEND
8
TABLE
0
ENDSEC
0
EOF
